<?xml version="1.0" encoding="UTF-8"?><svg id="Layer_1" xmlns="http://www.w3.org/2000/svg" width="22.49" height="22.34" viewBox="0 0 22.49 22.34"><path d="M10.54,4.13h.17s0,.04,0,.07c-.03,0-.07,0-.1,0,.25.17-.22.1-.07-.07Z" style="fill:#525252; stroke:#000; stroke-miterlimit:10; stroke-width:.25px;"/><path d="M11.03,4.03s.02,0,.03,0c-.03.17-.06.28-.23.33l.1.1-.13-.03.1.13c-.3.03-.07-.23-.1-.33l-.1.03s0-.04,0-.07c.09-.02.05-.08.13-.03-.04-.14.08-.23.2-.13Z" style="fill:#525252; stroke:#000; stroke-miterlimit:10; stroke-width:.25px;"/><path d="M20.39.86c-.14-.33.15-.1.03-.33-.15.01-.08-.19-.2.06,1.37-.61.8,7.89.18,7.2,0-.08,0-.16-.04-.24.26-.1.2-.26-.06-.31-.07-1.58.32-3.77-.01-5.52l.05.13c0-.14.1-.11.21-.13l-.1.1c.13-.01.12.17.17-.07l.07.03c-.03-.25.18,0,.07-.4,0,0-.16.1-.13-.03-.08.12-.3,0-.16-.13.17.21.04-.08.03-.2l-.1.03-.03-.1-.02.13c-.4-.12-.12-.07.05-.23.05.13.11.09.23.13l-.1-.07c.1-.1.02-.12,0-.23-.12,0-.07.11-.13.17Z" style="fill:#1e1e1e; stroke:#000; stroke-miterlimit:10; stroke-width:.25px;"/><path d="M20.12,7.14c.14-.03.21,0,.19.08.23.09.35.23.03.31,0,.15-.09.22-.21.27.12-.03.18.05.19.24.23-.04-.07.37-.1.46h-.13c.04-.09-.01-.15-.03-.23l-.03.13c0-.19-.16-.15-.2,0-.14-.12.08-.21-.16-.07.18-.11.22-.1.07-.18.22-.22.17-.68.4-1.01Z" style="fill:#1e1e1e; stroke:#000; stroke-miterlimit:10; stroke-width:.25px;"/><path d="M20.16,7.01c.13-.03.21.12.36.03.05.1-.22.12-.16.2.25-.07.34.35.03.33l.17.18-.07-.02-.07.2c-.13-.23-.17.13.03.1-.05.12-.07.31-.2.4-.06-.06.17-.32.13-.36-.06.05-.17.06-.1.13-.18-.04-.03.12-.15.13-.11-.16.01-.17-.22-.13.07-.07.19-.14,0-.13.04-.52.02.03.26.07-.07-.35.24.06.03-.3-.43.11.13-.13.03-.4.3.09.27-.24-.03-.13.19-.23-.28,0-.07-.3Z" style="fill:#1e1e1e; stroke:#000; stroke-miterlimit:10; stroke-width:.25px;"/><path d="M21.05,5.72c0-1.07.07-2.38-.1-3.5.24,1.01.21,2.39.1,3.5Z" style="fill:#0e0e0e; stroke:#000; stroke-miterlimit:10; stroke-width:.25px;"/><path d="M21.05,5.72c-.04.36-.12.71-.2,1.06-.04-.32.16-.74.17-1.09l.03.03Z" style="fill:#121212; stroke:#000; stroke-miterlimit:10; stroke-width:.25px;"/><path d="M20.98,2.21h-.03c0-.3-.22-.66-.13-.93.08.31.12.61.17.93Z" style="fill:#151515; stroke:#000; stroke-miterlimit:10; stroke-width:.25px;"/><path d="M11.3,4.03c.24-.07.51-.04.76,0-.33,3.69-1.22,4.63-1.49.33-.07.04-.06-.12,0-.13.04,0-.03.05,0-.02.04-.14.15.03.25-.02.13.17.19-.31.48-.17Z" style="fill:#4f4f4f; stroke:#000; stroke-miterlimit:10; stroke-width:.25px;"/><path d="M10.83,4.03c.27.15-.23.25-.3.1-.12-.12.23-.17.3-.1Z" style="fill:#4f4f4f; stroke:#000; stroke-miterlimit:10; stroke-width:.25px;"/><path d="M9.84,4.06c.04.8.22,2.12.26,2.84-.89-.25-1.28-1.76-1.62-2.58.36-.15.86-.21,1.26-.23,0-.03.06-.04.1-.03Z" style="fill:#474747; stroke:#000; stroke-miterlimit:10; stroke-width:.25px;"/><path d="M21.05,3.67c-.06-.11-.06-.39,0-.5,0,.16,0,.33,0,.5Z" style="fill:#292929; stroke:#000; stroke-miterlimit:10; stroke-width:.25px;"/><path d="M12.85,4.1c.38.04.75.11,1.12.2-1.14,3.16-1.76,3.41-1.32-.2.06,0,.14,0,.2,0Z" style="fill:#484848; stroke:#000; stroke-miterlimit:10; stroke-width:.25px;"/><path d="M11.73,6.08s0-.09,0-.13h-.23c0,.13.09.16-.07.2l.03-.3c-.1.19-.17-.08,0-.03,0,0-.05-.16.03-.17-.03.28.09.19.15.03.13.11-.15.15.02.23l.02-.1.08.03c-.02-.18.11-.4.06-.57-.07-.22-.19-.03-.21-.03-.16-.15-.06.05.03.1l.05-.13c.17.1,0,.19-.13.2v-.1s-.07.03-.07.03l-.07-.33.16.03-.1.1c.23.04.21-.15.36.07.06-.18-.1-.96-.03-.56l.07-.03.03.1v-.2c.03.5-.06,1.07-.2,1.55Z" style="fill:#4f4f4f; stroke:#000; stroke-miterlimit:10; stroke-width:.25px;"/><path d="M12.59,5.35c.2.03-.06.25.04.44.09.06.28.18.28.35-.26-.31-.18-.07-.31-.3-.07.22.17.14,0,.23-.16.05.03-.54,0-.73Z" style="fill:#464646; stroke:#000; stroke-miterlimit:10; stroke-width:.25px;"/><path d="M10.57,4.36c.11-.12.02.16.03.16.23-.15.02.16.23.07-.19.23-.08-.06-.26-.03,0-.06,0-.13,0-.2Z" style="fill:#525252; stroke:#000; stroke-miterlimit:10; stroke-width:.25px;"/><path d="M18.27,2.87c.3-.23.81-.91,1.19-.88-.63.77-.93,1.25-1.29,1.93.2-.04.57-.23.82-.22-.25.61-.89.85-1.19,1.38,1.21-.19,1.58-.18.4.66.36.15.67.37.83.76h-.56c.97,1.56.48,1.42-.37.21-2.25-1.21-1.22-2.69.17-3.84Z" style="fill:#1e1e1e; stroke:#000; stroke-miterlimit:10; stroke-width:.25px;"/><path d="M4.12,4.79c.24.08.47.15.69.2-.03-.04-.01-.06.03-.03-.13-.15.08-.37.16-.13.15-.06.42-.04.4.17.28-.06.42.06.53.23-.11.28-1.79,1.85-2.31,2.35,0-.42.33-.75.44-1.12-1.08.25-.13-.71.38-.88-.67-.37-2.06-1.08-.33-.78Z" style="fill:#1d1d1d; stroke:#000; stroke-miterlimit:10; stroke-width:.25px;"/><path d="M4.15,2.81c.29.41,2.31,2.02,1.04,2-.55.13.19-.54-.32-.17.04.52-.55-.1-.42-.36-.04.02-.09.01-.14-.03-.03.48-1.75-1.44-.2-.61-.11-.57-1.31-2.05.03-.83Z" style="fill:#1d1d1d; stroke:#000; stroke-miterlimit:10; stroke-width:.25px;"/><path d="M4.25,4.39c.09-.26-.23-.11.05-.26.07.09.17.13.28.13-.07-.08-.14-.06-.07-.2-.23.06-.1-.09-.3.03.04-.03.2-.09.18-.17.1.03.33.18.28.28.28.08-.07.08-.2.09,0,.12,0,.33.28.53.07-.06.09-.19-.02-.21.26-.13,0-.05.13-.28.14-.03,0,.14.03.17.31-.08.4.05.1.2.08.16.14.07.18-.03.09.23.06.08.31.1v-.2c.13.07-.07.17.13.1l-.1-.26c.12.23.63.75.26.89.08-.4-.37-.17-.63-.17.05-.13.33-.22,0-.28-.11,0-.3.2-.23-.05-.28.37-.35-.2-.69-.4Z" style="fill:#1d1d1d; stroke:#000; stroke-miterlimit:10; stroke-width:.25px;"/><path d="M6.7,7.47c.46-.25,1.78-.12,1.6.46-.39-.2-1.82-.15-1.6-.46Z" style="fill:#1e1e1e; stroke:#000; stroke-miterlimit:10; stroke-width:.25px;"/><path d="M15.89,7.54c-.03.11-.13.07-.13-.03-.25.17-.77-.22-1.19.03-.03.15-.63.38-.08.24.02.05.06.04.11.03-.04-.09.02-.12.1-.07.15.11.68-.53.76-.1.04,0,.06.01.07.03l-1.49.33c-.02-.58,1.4-.94,1.85-.46Z" style="fill:#1c1c1c; stroke:#000; stroke-miterlimit:10; stroke-width:.25px;"/><path d="M6.6,7.6c.52-.06,1.2.32,1.62.2-.02.23.06,0,.17.03-.05.34-1.35-.2-1.79-.23Z" style="fill:#1b1b1b; stroke:#000; stroke-miterlimit:10; stroke-width:.25px;"/><path d="M6.7,7.47c.54-.56,2.08.39,1.72.4-.31-.56-1.35-.5-1.72-.4Z" style="fill:#1a1a1a; stroke:#000; stroke-miterlimit:10; stroke-width:.25px;"/><path d="M10.57,4.03c-.12.47.2,1.02.1,1.49-.08-.49-.17-.99-.2-1.49.03,0,.07,0,.1,0Z" style="fill:#484848; stroke:#000; stroke-miterlimit:10; stroke-width:.25px;"/><path d="M19.17,2.38c-.27.27-.38.81-.78.89.22-.14.54-.72.78-.89Z" style="fill:#1e1e1e; stroke:#000; stroke-miterlimit:10; stroke-width:.25px;"/><path d="M18.5,4.36c-.18.19-.36.35-.53.53-.07-.05.24-.33.3-.33l-.1-.13c.11,0,.19-.05.33-.07Z" style="fill:#1c1c1c; stroke:#000; stroke-miterlimit:10; stroke-width:.25px;"/><path d="M19,5.09c-.25-.28-.2.14-.3.1l.03-.16c-1.17.05.59-.26.26.07Z" style="fill:#1a1a1a; stroke:#000; stroke-miterlimit:10; stroke-width:.25px;"/><path d="M4.58,4.89c.15-.04.43.2.2.23,0-.25-.53-.15-.66-.33.16.03.31.05.46.1Z" style="fill:#1b1b1b; stroke:#000; stroke-miterlimit:10; stroke-width:.25px;"/><path d="M3.62,6.18c.07.05-.09.18-.1.26.09.04.69-.1.59.13-.23-.26-.95.16-.5-.4Z" style="fill:#161616; stroke:#000; stroke-miterlimit:10; stroke-width:.25px;"/><path d="M12.62,4.66c.17.18.01.07.03.23.01.02.12-.1.1.03-.24-.07.03.38-.17.36.01-.21.03-.42.03-.63Z" style="fill:#454545; stroke:#000; stroke-miterlimit:10; stroke-width:.25px;"/><path d="M18.27,2.87l.1.07c-.25-.02-.22.22-.28.3-.27-.07.03-.21.18-.36Z" style="fill:#1d1d1d; stroke:#000; stroke-miterlimit:10; stroke-width:.25px;"/><path d="M4.68,3.34c-.17-.12-.49-.36-.53-.53.2.18.35.33.53.53Z" style="fill:#1a1a1a; stroke:#000; stroke-miterlimit:10; stroke-width:.25px;"/><path d="M5.87,5.42c-.09-.14.33-.07.08-.26-.03,0,0,.05-.02.07-.07-.07-.05-.19-.07-.26.16.19.33.37,0,.46Z" style="fill:#1a1a1a; stroke:#000; stroke-miterlimit:10; stroke-width:.25px;"/><path d="M15.76,7.5s.07.05.13.03c.07.32-.74,0-.28.07.04-.08.1-.12.15-.11Z" style="fill:#1e1e1e; stroke:#000; stroke-miterlimit:10; stroke-width:.25px;"/><path d="M18.31,4.99v.03c-.55.2-.6.05,0-.03Z" style="fill:#1b1b1b; stroke:#000; stroke-miterlimit:10; stroke-width:.25px;"/><path d="M17.74,6.38c.07-.01.47.31.36.4-.12-.13-.24-.27-.36-.4Z" style="fill:#151515; stroke:#000; stroke-miterlimit:10; stroke-width:.25px;"/><path d="M18.64,3.77c.09-.02.5-.21.36,0-.12-.09-.26.1-.36,0Z" style="fill:#191919; stroke:#000; stroke-miterlimit:10; stroke-width:.25px;"/><path d="M4.38,4.53s-.07-.07-.1-.1l.16-.13-.07.23Z" style="fill:#1d1d1d; stroke:#000; stroke-miterlimit:10; stroke-width:.25px;"/><path d="M18.24,6.91c.26,0,.11-.08.17.2-.06-.06-.12-.14-.17-.2Z" style="fill:#1d1d1d; stroke:#000; stroke-miterlimit:10; stroke-width:.25px;"/><path d="M17.61,6.25c-.07-.07-.16-.13-.23-.2l.02-.03c.1.03.16.15.25.22l-.03.02Z" style="fill:#1a1a1a; stroke:#000; stroke-miterlimit:10; stroke-width:.25px;"/><path d="M17.98,3.2c-.04.06-.2.15-.25.23-.01-.11.18-.2.25-.3,0,.02,0,.06,0,.07Z" style="fill:#141414; stroke:#000; stroke-miterlimit:10; stroke-width:.25px;"/><path d="M8.49,7.93c.03.12-.16.05-.2.03.08,0,.08-.2.2-.03Z" style="fill:#1e1e1e; stroke:#000; stroke-miterlimit:10; stroke-width:.25px;"/><path d="M4.85,4.96c-.03.08-.21-.07-.26-.07.08,0,.11.02.1-.07.05.05.11.09.17.13Z" style="fill:#666; stroke:#000; stroke-miterlimit:10; stroke-width:.25px;"/><path d="M2.67,7.77c-.26.04-.56-2.33-.56-2.65.13.29.21,1.93.56,2.65Z" style="fill:#111; stroke:#000; stroke-miterlimit:10; stroke-width:.25px;"/><path d="M2.14,2.81c-.01.73-.06,1.49,0,2.22-.04.02-.03.06-.03.1-.06-.65-.1-1.83.03-2.31Z" style="fill:#141414; stroke:#000; stroke-miterlimit:10; stroke-width:.25px;"/><path d="M9.71,4.06c.46-.05.91-.1,1.37-.1-.43.16-.98.05-1.37.1Z" style="fill:#171717; stroke:#000; stroke-miterlimit:10; stroke-width:.25px;"/><path d="M8.68,4.26c-.35.08-.94.32-1.19.33.38-.09.79-.36,1.19-.33Z" style="fill:#111; stroke:#000; stroke-miterlimit:10; stroke-width:.25px;"/><path d="M20.29,1.72c.23,1.47,0,1.06-.03,0h.03Z" style="fill:#151515; stroke:#000; stroke-miterlimit:10; stroke-width:.25px;"/><path d="M20.19,6.78c-.25,1.21-.35.84,0-.07v.07Z" style="fill:#161616; stroke:#000; stroke-miterlimit:10; stroke-width:.25px;"/><path d="M20.26,1.72h-.03c-.05-.27-.11-.55-.23-.79.19.01.24.6.26.79Z" style="fill:#131313; stroke:#000; stroke-miterlimit:10; stroke-width:.25px;"/><path d="M15.43,4.73c-.06.17-.4-.13-.53-.17.22.05.37.16.53.17Z" style="fill:#1a1a1a; stroke:#000; stroke-miterlimit:10; stroke-width:.25px;"/><path d="M2.24,2.15c-.03.19-.09.49-.1.66-.05-.15.02-.59.1-.66Z" style="fill:#171717; stroke:#000; stroke-miterlimit:10; stroke-width:.25px;"/><path d="M16.45,3.57c-.09-.14.3-.23.23-.43l.1.07c-.11.12-.22.24-.33.36Z" style="fill:#1d1d1d; stroke:#000; stroke-miterlimit:10; stroke-width:.25px;"/><path d="M7.23,4.76c.02-.12.07-.08.17-.1l-.07-.13c.15.02.02.11.17.07-.03.08-.13.11-.26.17Z" style="fill:#1a1a1a; stroke:#000; stroke-miterlimit:10; stroke-width:.25px;"/><path d="M2.43,1.19c-.04.1-.07.28-.1.4-.08-.12.05-.29.06-.42l.04.02Z" style="fill:#131313; stroke:#000; stroke-miterlimit:10; stroke-width:.25px;"/><path d="M2.24,2.15h-.03c.02-.13-.02-.35.1-.43-.03.14-.04.29-.07.43Z" style="fill:#101010; stroke:#000; stroke-miterlimit:10; stroke-width:.25px;"/><path d="M18.21,1.85c-.1.09-.2.18-.3.26-.09-.03.25-.35.3-.26Z" style="fill:#151515; stroke:#000; stroke-miterlimit:10; stroke-width:.25px;"/><path d="M20.42,5.25c-.04-.58.06-1.8-.07-2.45l.07-.03c.06.83.06,1.66,0,2.48Z" style="fill:#131313; stroke:#000; stroke-miterlimit:10; stroke-width:.25px;"/><path d="M20.42,5.25c-.04.51-.05,1.04-.23,1.52.06-.52.17-1.03.2-1.55l.03.03Z" style="fill:#151515; stroke:#000; stroke-miterlimit:10; stroke-width:.25px;"/><path d="M13.38,5.85c-.1.17-.18.3-.3.46-.15-.1.13-.2-.03-.21.09-.08.07-.24.2-.15-.07-.11.03-.16.13-.1Z" style="fill:#454545; stroke:#000; stroke-miterlimit:10; stroke-width:.25px;"/><path d="M12.59,6.08c-.15.18.1.4-.03.5l-.03-.07c-.06.13.01.24-.07.36-.08-.13.05-.64.07-.83l.07.03Z" style="fill:#464646; stroke:#000; stroke-miterlimit:10; stroke-width:.25px;"/><path d="M11.49,7.14c-.03.09-.08.43-.17.46-.06-.1.02-.18.07-.23-.15-.03-.15-.02-.1-.17l.08.1.12-.17Z" style="fill:#4e4e4e; stroke:#000; stroke-miterlimit:10; stroke-width:.25px;"/><path d="M11.66,6.61l-.13-.07c.15.01.09-.04.03-.1l.1-.02c0-.1-.03-.06-.06-.12.1,0,.1-.14.13-.23.01.2-.03.34-.07.53Z" style="fill:#4c4c4c; stroke:#000; stroke-miterlimit:10; stroke-width:.25px;"/><path d="M18.7,7.47c-.09-.13-.24-.25-.3-.4.1.09.35.26.3.4Z" style="fill:#1c1c1c; stroke:#000; stroke-miterlimit:10; stroke-width:.25px;"/><path d="M2.1,3.73c0-.16-.03-.36.03-.5,0,.16.03.36-.03.5Z" style="fill:#1e1e1e; stroke:#000; stroke-miterlimit:10; stroke-width:.25px;"/><path d="M14.57,7.54c.29-.19.63-.18.96-.13-.06.14.16.31.1.09-.17-.09.08-.04.13.01l-.04.07.08.03c-.09-.02-.42.13-.41-.07l-.12.07.1.07c-.17.05-.13-.18-.3-.05l.1.08c-.42.06-.37.19-.6-.16Z" style="fill:#1e1e1e; stroke:#000; stroke-miterlimit:10; stroke-width:.25px;"/><path d="M14.5,7.64s.08.08.1.17c-.18.1-.3.11-.46.03.08-.11.22-.27.36-.2Z" style="fill:#1e1e1e; stroke:#000; stroke-miterlimit:10; stroke-width:.25px;"/><path d="M14.57,7.54c.22.02.08.07.3,0-.02.23-.61.45-.3,0Z" style="fill:#1e1e1e; stroke:#000; stroke-miterlimit:10; stroke-width:.25px;"/><path d="M5.05,8.23c.88-.03,1.78-.05,2.65.1-.97-.09-2.08.02-2.98-.1.11,0,.22,0,.33,0Z" style="fill:#141414; stroke:#000; stroke-miterlimit:10; stroke-width:.25px;"/><path d="M17.68,8.23c-.54.07-1.38.04-1.85,0,.44-.06,1.41-.05,1.85,0Z" style="fill:#151515; stroke:#000; stroke-miterlimit:10; stroke-width:.25px;"/><path d="M15.83,8.23v.03c-.34-.02-.78.15-1.09.07.36-.05.73-.08,1.09-.1Z" style="fill:#131313; stroke:#000; stroke-miterlimit:10; stroke-width:.25px;"/><path d="M8.62,8.43c-.11.06-.83-.08-.96-.1.34.01.62.03.96.1Z" style="fill:#141414; stroke:#000; stroke-miterlimit:10; stroke-width:.25px;"/><path d="M13.68,8.53s-.48.2-.63.17c.16-.08.45-.2.63-.17Z" style="fill:#1c1c1c; stroke:#000; stroke-miterlimit:10; stroke-width:.25px;"/><path d="M4.09,8.3c-.07.09-.53.16-.69.1.23-.03.46-.07.69-.1Z" style="fill:#171717; stroke:#000; stroke-miterlimit:10; stroke-width:.25px;"/><path d="M4.81,8.26c-.23.06-.5.04-.73.07v-.03c.24-.02.52-.09.73-.03Z" style="fill:#161616; stroke:#000; stroke-miterlimit:10; stroke-width:.25px;"/><path d="M14.57,8.36c-.14.02-.37.1-.5.03.14,0,.4-.12.5-.03Z" style="fill:#121212; stroke:#000; stroke-miterlimit:10; stroke-width:.25px;"/><path d="M6.3,8.23c-.41,0-.84-.01-1.26,0,.37-.07.89-.07,1.26,0Z" style="fill:#161616; stroke:#000; stroke-miterlimit:10; stroke-width:.25px;"/><path d="M11.59,16.6c.68.36,1.47.56,2.25.46-.12.23-.63,1.2-1.03,1.26.02.1-.09.16-.17.1-1.16.97-3.84.07-3.8-1.32.95.27,1.93-.82,2.74-.5Z" style="fill:#e9e9e9; stroke:#000; stroke-miterlimit:10; stroke-width:.25px;"/><path d="M16.47,19.86c.58-.21.66-.2.79-.57.08.23-.02.39-.24.6l.4.02c-.4.38-1.23.48-2.06.65.5-.2.74-.49,1.11-.71Z" style="fill:#3e3e3e; stroke:#000; stroke-miterlimit:10; stroke-width:.25px;"/><path d="M11.33,10.25c.15-.08.32-.06.4.07-.32-.21-2.07.52-1.49.1-.08,0,.05-.16.08,0,.33-.16.59-.3,1.01-.17Z" style="fill:#1c1c1c; stroke:#000; stroke-miterlimit:10; stroke-width:.25px;"/><path d="M13.58,21.23s-.06.02-.1.03" style="fill:#e1e1e1; stroke:#000; stroke-miterlimit:10; stroke-width:.25px;"/><path d="M13.11,18.15c0,.2-.34.45-.3.17.08-.05.16-.19.3-.17Z" style="fill:#393939; stroke:#000; stroke-miterlimit:10; stroke-width:.25px;"/><path d="M6.4,14.51c-.22,0-.48.03-.69-.03.23.01.48-.04.69.03Z" style="fill:#1e1e1e; stroke:#000; stroke-miterlimit:10; stroke-width:.25px;"/><path d="M17.35,15.14c-.35.15-.89-.03-1.17-.05-1.3-.08.72-.12,1.17.05Z" style="fill:#191919; stroke:#000; stroke-miterlimit:10; stroke-width:.25px;"/><path d="M9.64,13.39c0,.77,1.03,1.05,1.36,1.62.79,2.05-4.74,1.83-2.51.76-.44-.13-1.3.33-1.16-.43,1.18.12,1.18-.37,0-.36.15-.96,1.78-.64,2.18-1.55.04-.04.08-.05.13-.03Z" style="fill:#e8e8e8; stroke:#000; stroke-miterlimit:10; stroke-width:.25px;"/><path d="M8.49,15.9c-.1.15-.67.1-.73.26-.44-.04.66-.26.73-.26Z" style="fill:#171717; stroke:#000; stroke-miterlimit:10; stroke-width:.25px;"/><path d="M8.49,15.77s-.91.1-.86,0c.19-.03.75-.13.86,0Z" style="fill:#191919; stroke:#000; stroke-miterlimit:10; stroke-width:.25px;"/><path d="M8.29,14.25c-.11.18-.54.17-.76.2,0,0-.03-.02-.03-.03.27-.04.53-.1.79-.17Z" style="fill:#141414; stroke:#000; stroke-miterlimit:10; stroke-width:.25px;"/><path d="M7.33,15.34c0,.28.11.51.36.46-.34.18-.41-.25-.43-.5.04-.01.06.03.07.03Z" style="fill:#141414; stroke:#000; stroke-miterlimit:10; stroke-width:.25px;"/><path d="M8.88,15.37c-.11-.07-.08-.24.03-.26.27.03.23.31-.03.26Z" style="fill:#202020; stroke:#000; stroke-miterlimit:10; stroke-width:.25px;"/><path d="M8.88,15.37c.26-.06.27-.15.03-.26.31-.06.23.44-.03.26Z" style="fill:#141414; stroke:#000; stroke-miterlimit:10; stroke-width:.25px;"/><path d="M11,15.01c-.03.15.06.4-.03.5.03-.16-.06-.39.03-.5Z" style="fill:#f5f5f5; stroke:#000; stroke-miterlimit:10; stroke-width:.25px;"/><path d="M12.82,18.32l.13.13c-.21.08-.44.02-.13-.13Z" style="fill:#1f1f1f; stroke:#000; stroke-miterlimit:10; stroke-width:.25px;"/><path d="M13.71,17.06c-.22.06-.54.06-.76,0,.23.01.53.01.76,0Z" style="fill:#191919; stroke:#000; stroke-miterlimit:10; stroke-width:.25px;"/><path d="M9.31,17.09c-.12.01-.24.08-.36,0,.07-.04.3-.07.36,0Z" style="fill:#050505; stroke:#000; stroke-miterlimit:10; stroke-width:.25px;"/><path d="M1.51,2.54c.51-6.06,4.47,1.23,6.71,1.16,2.27-1.15,5.35.54,7.21-.33,1.3-.92,3.97-4.93,5.26-2.45-.09.12-.23-.59-.3-.07-.02-.47.32-.04.2.19-.02.02-.33-.1-.2-.19.04.16.28.22.22.46.45,0,.05.9-.19.49-.98-2.36-3.68,1.72-4.9,2.92-2.65-.88-5.65-1.11-8.29.03-1-.18-4.24-5.7-4.93-3.04-1.86,10.64,4.19,3.89,7.94,7.94.13-.12,1.13-.14.47.1.14.16-.17.46-.26.16-.55-.05-.05.28-.36.33-.09.19-.48.19-.23.31-.13.33.53.47-.22.39-.01-.38.06-.93-.23-1.16-.09.03-.21-.16-.17-.23-1.54-.75-4.36-1.08-5.75-.03.08.05.06.11-.03.1-1.39,4.58,5.76,6.14,6.18,1.33.19-.14.76.59.43.65-.13-.11-.1.19-.2.23.52,1.26-1.1,2.62-2.35,2.61l.04.03c-.07.13-.13.28-.18.43,1.42-.02.91.81-.06.44-.37.87,1.48.11,1.16.56-2.15.6,3.22,1.18,2.51-.89-.41-.44-1.54-.88-1.36-1.62-.14.07-.02-.15.07-.1.75-.62,1.96-.35,2.91-.2.04-.09.11-.06.1.03.11-.01.24.19.17.26.22.2-.15.97-.43.76-2.56,1.54.63,3.19,2.34,1.95.16-.01.43.11.17.27-.54,1.3-2.79.48-3.8.09-.7.73-2.25.6-2.47.57-.07,0-.83-.2-.75-.33-.31.15-.2-.47-.41-.24-.5-.48-1.23.09-1.79.26-.12.27-.62.14-.85.39-.08-.09-.15-.18-.22-.26.8-.42,3.44-1.34,1.5-1.51-.78.3-.21-.52.63-.34-.14.01.05-.39.04-.44-2.9-.05-3.49-.8-4.24-3.46-.27.8-.51,1.71-1.39,2.11.14.11.47.13.44.29,1.25-.07,1.22.37.25,1.21.1.02.17.09.11.15.74.09,2.3.13.75.64.1.07.15.2.06.23,2.24-.81,3.45-.44.5.27.39.26.85.62,1.23.89.22.29,2.79,1.47,4.03,1.92-.05.51-1.99-.2-2.55-.07-1.56,2.23,5.66,3.23,7.44,2.51,0-.09.04-.11.1-.03,1.12-.53,2.41-.78,3.32-1.65-.39-1.38-1.5-.5-2.56-.59-1.27-.23,2.83-1.32,3.25-1.9-.27-.01-.83-.52-.3-.31.11-.11.22-.07.31-.14.37.49,1.13-.4,1.43-.55-3.73-1.23-.77-.63.69-.55-1.51-.55-.04-.56.7-.63,0-.11.09-.16.25-.15-.39-.31-.72-.66-.81-1.15.78-.05,1.91-.11.79-.87-.46-.5-.43-1.16-.78-1.69-.02.21-.22.05-.14-.01.05.04-.15,1.36-.23,1.32-.12-.16-.53.12-.35-.32.73-3.5-2.34-3.37-5.09-2.83-2.61,1.03-.26,5.52,2.26,4.67,1.3.51,2.51-1.77,2.74-1.19,0-.04.03-.06.07-.06-.11-.15-.03-.32.16-.3.87,1.14-2.34,2.56-3.69,2.22.2.14.12.58-.16.57.04-.23-.13-.42-.31-.44-.09.06-.23-.1-.13-.17-.83-.2-2.14-.59-2.22-1.45-.44-1-.4-2.3-1.12-2.78-.14-.23.07-.39.31-.33-.03-.27,0-.29.25-.29-.01-.05.01-.07.07-.07.1-.73.78-.92,1.39-1.02,1.49-.47,4.06-.35,5.9-.13-.09-.13.3-1.03.39-.62-.13.09-.14.51.06.44,1.63,1.39-.16,1.39.54,2.76.25,1.64,3.2,2.26.42,3.1,1.22.71.08,1.22-.53,1.92.37.25,2.06.75,1.56,1.2-1.39-.85-2.01-1.19-3.28.06.32.36,2.26,1.34,1.48,1.55-1.32-1.67-4.33-1.27-2.27.97-3.69,3.22-9.67,3.26-13.32,0,.21-.43.82-1,.78-1.53,0,0-1.25-.69-1.25-.69-.54.25-2.82,2.09-1.74.74.38-.39,1.02-.71,1.39-1.04-.24-.09-1.36-1.25-1.66-.86-2.43,1.31-2.14.52-.06-.42-.73-.7-1.71-1.19-.53-1.9-.62-.16-1.23-.49-1.39-1.16,1.35-.22,1.71-1.71,2.12-2.79-.6-.33-.76-1.34.06-1.52-1.04-1.84-.93-3.98-.83-6.07Z" style="fill:#1e1e1e; stroke:#000; stroke-miterlimit:10; stroke-width:.25px;"/><path d="M1.54,14.08c-.18-.02-.37-.09-.53-.17.09-.08.46.12.53.17Z" style="fill:#0b0b0b; stroke:#000; stroke-miterlimit:10; stroke-width:.25px;"/><path d="M22.34,13.02c-.09-.12-.36-.06-.4-.2.11.06.52.07.4.2Z" style="fill:#1a1a1a; stroke:#000; stroke-miterlimit:10; stroke-width:.25px;"/><path d="M16.29,20.93c-.16.08-.27.13-.43.2.12-.05.31-.27.43-.2Z" style="fill:#1b1b1b; stroke:#000; stroke-miterlimit:10; stroke-width:.25px;"/><path d="M1.41,16.73c-.13.06-.26.13-.4.2l-.02-.04c.13-.02.31-.23.42-.16Z" style="fill:#121212; stroke:#000; stroke-miterlimit:10; stroke-width:.25px;"/><path d="M20.85,16.6c.1-.02.29.11.36.17-.12-.06-.25-.11-.36-.17Z" style="fill:#171717; stroke:#000; stroke-miterlimit:10; stroke-width:.25px;"/><path d="M21.35,13.98c-.09.02-.36.16-.38.07.06-.03.31-.11.38-.07Z" style="fill:#0b0b0b; stroke:#000; stroke-miterlimit:10; stroke-width:.25px;"/><path d="M15.86,21.13c-.14.06-.24.19-.36.13.11-.05.25-.09.36-.13Z" style="fill:#171717; stroke:#000; stroke-miterlimit:10; stroke-width:.25px;"/><path d="M6.57,21.09c.03-.09.35.11.33.17-.11-.05-.22-.11-.33-.17Z" style="fill:#131313; stroke:#000; stroke-miterlimit:10; stroke-width:.25px;"/><path d="M19.1,11.34c-.01.18.09.42,0,.59h.17c-.09.12-.17.25,0,.33l.02-.2c.11.04.08.17.22.2,0-.29.41-1.08-.07-.96v-.1c.74.09-.39-.45.3-.23-.04-.31.15-.22-.03-.46.22.14.24-.1.4.26h-.2s.07-.13.07-.13c-.44.64-.21,1.87-.83,2.58-.1-.21.1-.22.17-.41-.3-.02.24-.21.16-.51-.14-.05-.39.06-.3.26l.08-.07c.02.15-.09.14-.18.18.18.11-.22.41-.36.2.19-.03.09-.11.13-.25l.13.17c-.11-.51-.18-.74.13-1.45Z" style="fill:#1d1d1d; stroke:#000; stroke-miterlimit:10; stroke-width:.25px;"/><path d="M9.44,9.82l.07-.1c.28.29-.11,1.32.46,1.22-.07-.12-.27-.12-.26-.26.08.07.08-.03.13-.1-.32-.05-.02-.17.1-.28-.22.02-.35-.04-.13-.21.02.29.21-.06.17.2.08.09.05-.06.05-.07.07-.09.24.03.28-.1l-.13-.07c.3-.28.4.65.03.33-.04.09-.1,0-.09,0,.21.09-.28.17-.18.32.14-.04.26.08.21.21.27.15-.09.8-.1.4-.1,0-.26-.15-.13-.3-.31-.11-.25.05-.29.29-.19.21.07-1.15-.17-1.48Z" style="fill:#1d1d1d; stroke:#000; stroke-miterlimit:10; stroke-width:.25px;"/><path d="M11.46,13.32c.22.01,0,.76-.2.46-1.11.06-.92-.62.2-.46Z" style="fill:#fdfdfd; stroke:#000; stroke-miterlimit:10; stroke-width:.25px;"/><path d="M5.87,15.11c.12.07-.09.17.03.33-.58.07-1.14.21-1.72.3.22-.08.03-.1.03-.12,0-.11.2-.25.1-.05.21.05.09.01.14-.06,0,0,.15.06.06-.1.04,0,.25.06.07.07.04.13.02.05-.03.13.29.06.38-.22.59-.1.01-.01-.14-.35.13-.23-.14-.22.1-.02.22-.06.27.34-.13-.13.21-.07,0-.06.12-.06.17-.03Z" style="fill:#1e1e1e; stroke:#000; stroke-miterlimit:10; stroke-width:.25px;"/><path d="M7.53,16.46c-.07-.15.35-.21.33-.08-.23.08-.12.02,0,.18l-.17.02c.11.25.43-.15.26.18.25.07.43.21.71.23l-.02-.13c.23,0,.38.04.17-.17.05.03.16.23.18.07.25-.11.1.16-.05.13l.03.1-.26.03c.25.02.53-.04.76.03-.63.13-1.59-.07-1.95-.6Z" style="fill:#1d1d1d; stroke:#000; stroke-miterlimit:10; stroke-width:.25px;"/><path d="M11.49,13.75c-.12-.18.04-.27-.03-.43.71.01.79.4.03.43Z" style="fill:#fcfcfc; stroke:#000; stroke-miterlimit:10; stroke-width:.25px;"/><path d="M19.86,11.01s-.04-.08-.03-.13c.1.08.05.1.2.07l-.03-.1c.32-.05.22-.14.16.13-.22,0-.3.13-.11.33,0-.1.18-.15.02-.17.03-.05.06-.07.03-.13.21.02.07.23,0,.33l.2.03c-.2-.02-.1.07-.2.13.28,0,.09.08.1.21.11.3.14.25.17-.01.15.13.29.02.03.18,0,.04.16.02.05.18-.1.12.03-.3-.15-.03-.17-.32-.35-.67-.43-1.03Z" style="fill:#1c1c1c; stroke:#000; stroke-miterlimit:10; stroke-width:.25px;"/><path d="M9.81,12.99c-.76,1.18.22-.45.23-.96-.09-.05-.01-.45.1-.46.15-.35-.17-.74.13-.99.04.81-.2,1.66-.46,2.41Z" style="fill:#1a1a1a; stroke:#000; stroke-miterlimit:10; stroke-width:.25px;"/><path d="M12.52,21.46c-.63.38-1.74-.17-2.2.26-.2-.04.12-.13.02-.18-.07-.06-.31.06-.3-.08.74.1,1.74.09,2.48,0Z" style="fill:#1a1a1a; stroke:#000; stroke-miterlimit:10; stroke-width:.25px;"/><path d="M16.42,8.92c.68-.04,2.07-.06,2.48.43-.69-.5-1.7-.29-2.48-.43Z" style="fill:#121212; stroke:#000; stroke-miterlimit:10; stroke-width:.25px;"/><path d="M12.78,13.02c-.32-.67-.58-1.47-.46-2.22-.02.77.24,1.49.46,2.22Z" style="fill:#181818; stroke:#000; stroke-miterlimit:10; stroke-width:.25px;"/><path d="M5.11,16.63c-.07.11-.28.14-.4.2.24.47.38,0,.76.03-.19.13-.48.13-.58.33-.19-.15-.16-.27-.41-.26v.16s-.07-.2-.07-.2c.22,0,.55-.32.69-.27Z" style="fill:#1e1e1e; stroke:#000; stroke-miterlimit:10; stroke-width:.25px;"/><path d="M7.53,16.46s.03.07.03.1c-.36-.68-1.63.24-1.76.1.54-.13,1.32-.79,1.73-.2Z" style="fill:#161616; stroke:#000; stroke-miterlimit:10; stroke-width:.25px;"/><path d="M12.82,16.99c.33.02.74-.02,1.03.07-.87.22-2.91-.58-1.03-.07Z" style="fill:#161616; stroke:#000; stroke-miterlimit:10; stroke-width:.25px;"/><path d="M10.97,12.93c.56-.04,1.13-.04,1.65.17-.63-.16-1.44-.11-2.05-.13.15-.02.24-.03.4-.03Z" style="fill:#181818; stroke:#000; stroke-miterlimit:10; stroke-width:.25px;"/><path d="M20.65,13.52s.17-.03.17.03c-.25-.09-.48.21-.56.1l.13-.07h-.5s.1.33.1.33c-.08-.12-.19-.25-.17-.4.27,0,.55,0,.83,0Z" style="fill:#1a1a1a; stroke:#000; stroke-miterlimit:10; stroke-width:.25px;"/><path d="M5.48,15.17c-.02.13-.23-.04-.23.03l-1.39.23c.46-.08,1.34-.44,1.62-.26Z" style="fill:#111; stroke:#000; stroke-miterlimit:10; stroke-width:.25px;"/><path d="M20.42,14.88c.19.23-.18.44-.16.13.06.07.08.06.2.07-.11-.31-.61-.04-.99-.07.3-.06.67-.17.96-.13Z" style="fill:#1c1c1c; stroke:#000; stroke-miterlimit:10; stroke-width:.25px;"/><path d="M16.32,14.45c.09,0,.28.05.27-.07h.03c0,.18.43-.05.56,0l-.03-.16.16.07-.1.07c.08,0,.15,0,.23,0-.23.08-1.17.28-1.12.1Z" style="fill:#1d1d1d; stroke:#000; stroke-miterlimit:10; stroke-width:.25px;"/><path d="M5.81,19.11c-.07.41-.37.42.12.73l.05-.1c-.01.25.15.03.17.26-.46-.19-.86-.49-.33-.89Z" style="fill:#616161; stroke:#000; stroke-miterlimit:10; stroke-width:.25px;"/><path d="M6.7,14.51c-.53,0-1.18,0-1.69-.17.57.1,1.15,0,1.69.17Z" style="fill:#191919; stroke:#000; stroke-miterlimit:10; stroke-width:.25px;"/><path d="M6.8,15.01c-.19.04-1.2.22-1.36.1.44-.06.91-.1,1.36-.1Z" style="fill:#161616; stroke:#000; stroke-miterlimit:10; stroke-width:.25px;"/><path d="M6.14,16.2l.02.04c-.34.14-.71.24-1.05.39.28-.22.68-.28,1.03-.43Z" style="fill:#1d1d1d; stroke:#000; stroke-miterlimit:10; stroke-width:.25px;"/><path d="M8.58,18.94c-.44.01-1.09.12-1.42-.03.42.12,1.05-.08,1.42.03Z" style="fill:#171717; stroke:#000; stroke-miterlimit:10; stroke-width:.25px;"/><path d="M6.47,17.98c-.31,0-.92-.35-1.12-.56.35.21.75.39,1.12.56Z" style="fill:#181818; stroke:#000; stroke-miterlimit:10; stroke-width:.25px;"/><path d="M4.19,15.74s.02,0,.03,0c-.13-.05-1.18.54-.83.1.12.1.25.08.28-.07,0,.15.36-.03.51-.03Z" style="fill:#1b1b1b; stroke:#000; stroke-miterlimit:10; stroke-width:.25px;"/><path d="M16.06,18.75c-.34.09-.79.3-1.06.2.37.03.73-.24,1.06-.2Z" style="fill:#181818; stroke:#000; stroke-miterlimit:10; stroke-width:.25px;"/><path d="M2.04,14.84c.31,0,.7.09.99.17-.29.05-.74-.13-1.09-.13,0-.05.06-.03.1-.03Z" style="fill:#171717; stroke:#000; stroke-miterlimit:10; stroke-width:.25px;"/><path d="M10.14,11.57c-.1.49-.33.12-.16-.13l.16.13Z" style="fill:#1e1e1e; stroke:#000; stroke-miterlimit:10; stroke-width:.25px;"/><path d="M6.1,15.41l-.17-.03c.23-.05.66-.06.96-.07-.07.17-.57.02-.79.1Z" style="fill:#181818; stroke:#000; stroke-miterlimit:10; stroke-width:.25px;"/><path d="M5.84,19.04c-.09.23-.49.54-.13.69-.49.05,0-.69.13-.69Z" style="fill:#1a1a1a; stroke:#000; stroke-miterlimit:10; stroke-width:.25px;"/><path d="M3.1,12.46c-.12-.02-.34-.77-.23-.96.03.33.13.65.23.96Z" style="fill:#191919; stroke:#000; stroke-miterlimit:10; stroke-width:.25px;"/><path d="M7.16,18.91v.03c-.34-.07-.73-.09-.96-.3.31.02.64.21.96.26Z" style="fill:#151515; stroke:#000; stroke-miterlimit:10; stroke-width:.25px;"/><path d="M6.2,18.65c.09,0,.27.17.1.1.19.3-.15-.07-.2.1-.11-.11-.06-.31.1-.2Z" style="fill:#5f5f5f; stroke:#000; stroke-miterlimit:10; stroke-width:.25px;"/><path d="M6.77,20.4c.16.08.32.14.46.23-.26-.08-.46-.12-.73-.13.03-.11.18,0,.23-.03l-.03-.1s.04.02.07.03Z" style="fill:#1c1c1c; stroke:#000; stroke-miterlimit:10; stroke-width:.25px;"/><path d="M13.05,9.95c.03.47-.2,1.28.16,1.36-.02-1.12.19.38.35.79-.16.82-.4-.81-.26.05-.39-.16-.42-1.66-.25-2.19Z" style="fill:#d6d6d6; stroke:#000; stroke-miterlimit:10; stroke-width:.25px;"/><path d="M16.42,8.92c-.18.09-2.62.12-3.01.5.44-.44,2.33-.5,3.01-.5Z" style="fill:#111; stroke:#000; stroke-miterlimit:10; stroke-width:.25px;"/><path d="M19.1,11.34c-.38,1.61.15-1.15-.03-1.72.22.54.03,1.16.03,1.72Z" style="fill:#dbdbdb; stroke:#000; stroke-miterlimit:10; stroke-width:.25px;"/><path d="M16.98,13.75c.28-.06.75-.03.78-.36l.05.2c-.45.2-1,.28-1.49.26.08-.2.28.14.35-.16l-.02.1c.12.02.22-.02.33-.03Z" style="fill:#d6d6d6; stroke:#000; stroke-miterlimit:10; stroke-width:.25px;"/><path d="M16.29,13.88c-.33.02-.56.03-.89,0,.25-.08.63-.04.89,0Z" style="fill:#e6e6e6; stroke:#000; stroke-miterlimit:10; stroke-width:.25px;"/><path d="M2,13.52c.24.02.48.05.73.03-.04.1-.08.2-.13.3l.07-.26c-.12.06-.33-.09-.38.07-.02-.11-.22-.1-.23,0,0-.03-.16-.12-.05-.13Z" style="fill:#1c1c1c; stroke:#000; stroke-miterlimit:10; stroke-width:.25px;"/><path d="M10.37,12.99c-.2.03-.49.18-.66.3-.05-.25.48-.31.66-.3Z" style="fill:#171717; stroke:#000; stroke-miterlimit:10; stroke-width:.25px;"/><path d="M9.81,12.99c0,.08-.02.11.07.1-.18.1-.21.4-.36.33l.3-.43Z" style="fill:#787878; stroke:#000; stroke-miterlimit:10; stroke-width:.25px;"/><path d="M16.32,14.45v.07c-.24,0-.49,0-.73,0-.04-.13.54,0,.73-.07Z" style="fill:#171717; stroke:#000; stroke-miterlimit:10; stroke-width:.25px;"/><path d="M3.66,15.5c-.27.08-.54.21-.83.23.25-.1.55-.2.83-.23Z" style="fill:#121212; stroke:#000; stroke-miterlimit:10; stroke-width:.25px;"/><path d="M3.33,13.09v.03c-.1-.24-.27-.43-.23-.66.07.21.16.41.23.63Z" style="fill:#161616; stroke:#000; stroke-miterlimit:10; stroke-width:.25px;"/><path d="M2.33,11.83c-.06-.17.19-.57.26-.73-.06.24-.16.5-.26.73Z" style="fill:#161616; stroke:#000; stroke-miterlimit:10; stroke-width:.25px;"/><path d="M18.04,14.15c-.22.12-.36.19-.63.2.21-.03.43-.23.63-.2Z" style="fill:#1a1a1a; stroke:#000; stroke-miterlimit:10; stroke-width:.25px;"/><path d="M10.07,11.74c.1.1-.1.35-.2.1-.1-.14.12-.05.2-.1Z" style="fill:#1d1d1d; stroke:#000; stroke-miterlimit:10; stroke-width:.25px;"/><path d="M13.58,17.03c-.25.01-.51,0-.76-.03.09-.09.65.03.76.03Z" style="fill:#242424; stroke:#000; stroke-miterlimit:10; stroke-width:.25px;"/><path d="M14.3,16.93c-.16.04-.38.19-.53.1.15-.02.38-.17.53-.1Z" style="fill:#191919; stroke:#000; stroke-miterlimit:10; stroke-width:.25px;"/><path d="M11.16,16.46c-.16.12-.32.18-.5.26-.02-.09.43-.32.5-.26Z" style="fill:#191919; stroke:#000; stroke-miterlimit:10; stroke-width:.25px;"/><path d="M8.12,18.65c.1.04.39.12.46.17-.17.06-.33-.09-.49-.12l.02-.04Z" style="fill:#1a1a1a; stroke:#000; stroke-miterlimit:10; stroke-width:.25px;"/><path d="M18.34,15.34c-.16.09-.4-.06-.6-.07.07-.09.43.06.6.07Z" style="fill:#181818; stroke:#000; stroke-miterlimit:10; stroke-width:.25px;"/><path d="M11.46,13.79c.02.07-.12.16-.17.2-.22-.15,0-.23.17-.2Z" style="fill:#656565; stroke:#000; stroke-miterlimit:10; stroke-width:.25px;"/><path d="M10.01,11.93s.03.06.03.1c-.12-.02-.21,0-.13-.13-.34.03.08-.14.1.03Z" style="fill:#1e1e1e; stroke:#000; stroke-miterlimit:10; stroke-width:.25px;"/><path d="M17.78,15.24c-.08.05-.45-.01-.46-.07.03-.1.35.07.46.07Z" style="fill:#1b1b1b; stroke:#000; stroke-miterlimit:10; stroke-width:.25px;"/><path d="M15,18.94v.03c-.22,0-.44,0-.66,0,.2-.07.45-.02.66-.03Z" style="fill:#0f0f0f; stroke:#000; stroke-miterlimit:10; stroke-width:.25px;"/><path d="M12.78,13.09c.1.07.15.21.2.33-.15.02-.09-.24-.26-.3l.07-.03Z" style="fill:#6d6d6d; stroke:#000; stroke-miterlimit:10; stroke-width:.25px;"/><path d="M18.87,15.47c-.04.09-.42,0-.4-.1.13.03.27.06.4.1Z" style="fill:#1b1b1b; stroke:#000; stroke-miterlimit:10; stroke-width:.25px;"/><path d="M11.92,16.73c-.09.07-.23-.11-.33-.13.08-.09.25.11.33.13Z" style="fill:#171717; stroke:#000; stroke-miterlimit:10; stroke-width:.25px;"/><path d="M8.15,15.31c-.18-.03-.47.06-.6-.03.19.03.46-.06.6.03Z" style="fill:#101010; stroke:#000; stroke-miterlimit:10; stroke-width:.25px;"/><rect x="13.08" y="16.63" width=".56" height=".03" style="fill:#101010; stroke:#000; stroke-miterlimit:10; stroke-width:.25px;"/><path d="M3.53,13.45c-.07-.12-.17-.23-.2-.36.06.08.27.28.2.36Z" style="fill:#131313; stroke:#000; stroke-miterlimit:10; stroke-width:.25px;"/><path d="M18.4,13.98c-.14.09-.21.12-.36.17.06-.1.24-.13.35-.2l.02.03Z" style="fill:#131313; stroke:#000; stroke-miterlimit:10; stroke-width:.25px;"/><path d="M1.67,13.49c.11,0,.22.02.33.03v.07c-.07-.05-.62-.07-.33-.1Z" style="fill:#181818; stroke:#000; stroke-miterlimit:10; stroke-width:.25px;"/><path d="M11.26,13.79c-.02.2.07.31-.13.07.03-.05.08-.06.13-.07Z" style="fill:#f9f9f9; stroke:#000; stroke-miterlimit:10; stroke-width:.25px;"/><rect x="12.88" y="10.41" width=".03" height=".53" style="fill:#0e0e0e; stroke:#000; stroke-miterlimit:10; stroke-width:.25px;"/><rect x="8.85" y="16.63" width=".53" height=".03" style="fill:#0c0c0c; stroke:#000; stroke-miterlimit:10; stroke-width:.25px;"/><path d="M11.73,12.93c-.24,0-.52,0-.76,0,.22-.06.54-.06.76,0Z" style="fill:#1e1e1e; stroke:#000; stroke-miterlimit:10; stroke-width:.25px;"/><path d="M1.48,3.04c.04.76-.06,1.54.03,2.28-.25-.38-.1-2.03,0-2.78-.01.15-.03.34-.03.5Z" style="fill:#161616; stroke:#000; stroke-miterlimit:10; stroke-width:.25px;"/><path d="M10.67,3.3s.04,0,.03.03c-1.92.18-2.02.11-.03-.03Z" style="fill:#0a0a0a; stroke:#000; stroke-miterlimit:10; stroke-width:.25px;"/><path d="M8.19,3.67c.01.11-.54.19-.71.3l-.05-.07.1-.05c-.12-.17-.41-.32-.43-.48.33.41.61.56,1.09.3Z" style="fill:#1b1b1b; stroke:#000; stroke-miterlimit:10; stroke-width:.25px;"/><path d="M13.35,3.44c-.19.01-1.37-.07-1.36-.13.43.02.93.06,1.36.13Z" style="fill:#0c0c0c; stroke:#000; stroke-miterlimit:10; stroke-width:.25px;"/><path d="M14.47,3.7c-.32.06-.78-.22-1.12-.23v-.03c.38.06.76.16,1.12.26Z" style="fill:#111; stroke:#000; stroke-miterlimit:10; stroke-width:.25px;"/><path d="M11.99,3.3c-.39.04-.94.05-1.32,0,.42-.01.9-.02,1.32,0Z" style="fill:#010101; stroke:#000; stroke-miterlimit:10; stroke-width:.25px;"/><path d="M1.54,5.98c-.03-.19-.18-.51-.03-.66.02.21.01.46.03.66Z" style="fill:#161616; stroke:#000; stroke-miterlimit:10; stroke-width:.25px;"/><path d="M8.88,3.53c-.22,0-.51.19-.69.13.22-.03.5-.2.69-.13Z" style="fill:#121212; stroke:#000; stroke-miterlimit:10; stroke-width:.25px;"/><path d="M15.03,3.77c.12-.11.27-.27.4-.4.01.13-.29.3-.4.4Z" style="fill:#101010; stroke:#000; stroke-miterlimit:10; stroke-width:.25px;"/><path d="M12.88,4.03c.38-.01.85.3,1.16.13.02.29.7.15.89.4-.54-.3-1.87-.17-2.05-.53Z" style="fill:#1a1a1a; stroke:#000; stroke-miterlimit:10; stroke-width:.25px;"/><path d="M12.88,4.03c-.32.24-1.08-.14-1.59,0,.21-.2,1.06.03,1.59,0Z" style="fill:#1a1a1a; stroke:#000; stroke-miterlimit:10; stroke-width:.25px;"/><path d="M1.48,3.04c.13.13-.11.65.13.56l-.13.13c0-.23-.01-.46,0-.69Z" style="fill:#252525; stroke:#000; stroke-miterlimit:10; stroke-width:.25px;"/><path d="M9.71,4.06l.03.03c-.26.06-.27.11-.45,0,.14-.04.28-.02.41-.03Z" style="fill:#1a1a1a; stroke:#000; stroke-miterlimit:10; stroke-width:.25px;"/><path d="M1.48,4.66c-.02.16.14.54,0,.6-.01-.2,0-.4,0-.6Z" style="fill:#262626; stroke:#000; stroke-miterlimit:10; stroke-width:.25px;"/><path d="M20.55,1.45l-.03.23h-.1c.05-.19-.1-.22.13-.23Z" style="fill:#1e1e1e; stroke:#000; stroke-miterlimit:10; stroke-width:.25px;"/><path d="M15.13,14.65c.19-.1.11,0,.23-.13-.08.29.27.1.03.25.07.11.1.46.17.15l.07.1.03-.17c.13.28-.3.26-.1.58,0-.4.51-.23.52-.33.24-.04.35,0,.32.15.09-.21.58-.12.72.03.18-.28.49.35.06.11-.04.16.29.11.53.2l-.03-.13c-.12.14-.2-.04-.2-.17.22.02.48.06.33.36-2.83-.7-2.74.37-.26,1.03-.34.34-.25-.03-.46.15.12.07.26.17.4.12l-.03.07c.1.34-2.07-1.31-2.55-.4-.03-.18.09-.26-.17-.23.02-.01.12-.02.1-.07h-.1c.08-.14.16-.01.26,0,0-.21-.44-.17-.2-.44-.07-.04-.73.03-.7-.13.3-.06.85.09,1.03.03.59-.64-.85-.55.1-.73-.04-.04-.02-.06.03-.03.01-.09,0-.18-.03-.26-.04.09-.07-.06-.1-.1Z" style="fill:#1e1e1e; stroke:#000; stroke-miterlimit:10; stroke-width:.25px;"/><path d="M15.23,15.04c-.51,0-.16.36.1.1-.04.21-.05.32.1.43-.18-.08-.32.11-.17.2-.25.08-.06-.25-.02-.4-.24-.07-.61.03-.84-.06q.07-.03,0,0c-.56-.19.72-.38.83-.26Z" style="fill:#1e1e1e; stroke:#000; stroke-miterlimit:10; stroke-width:.25px;"/><path d="M14.11,15.74c.42-.01.92.25,1.22.07-.09.27-.15.07-.3.23.03-.23-.16,0-.2-.03.14-.17-.02-.11-.07.03-.14-.08-1.04-.07-.66-.3Z" style="fill:#1e1e1e; stroke:#000; stroke-miterlimit:10; stroke-width:.25px;"/><path d="M15.13,15.77c-.07-.04.09-.33.07-.43.17-.09-.05.35-.07.43Z" style="fill:#0e0e0e; stroke:#000; stroke-miterlimit:10; stroke-width:.25px;"/><path d="M17.38,16.6v.1c-.18-.02-.25.03-.2-.2.07.03.14.07.2.1Z" style="fill:#1e1e1e; stroke:#000; stroke-miterlimit:10; stroke-width:.25px;"/><path d="M15.66,15.04c.26-.02.63.04.89.07-.09.04-.07.12-.08.2-.24,0-.1-.19-.12-.2-.09-.08-.1.09-.12.1-.07.04,0-.14-.12-.1.12.16-.17.12-.2.09-.01,0,.02-.15-.07-.09.05.11-.13.25-.23.17.06.74-.52-.23.03-.23Z" style="fill:#1e1e1e; stroke:#000; stroke-miterlimit:10; stroke-width:.25px;"/><path d="M15.92,16.36c-.31-.05-.32-.07-.3-.36.3.05.31.11.3.36Z" style="fill:#1e1e1e; stroke:#000; stroke-miterlimit:10; stroke-width:.25px;"/><path d="M16.55,16.38c.38.36-.68.02-.13.09-.33-.32.05-.08.13-.09Z" style="fill:#1e1e1e; stroke:#000; stroke-miterlimit:10; stroke-width:.25px;"/><path d="M17.31,15.17v.03s-.06.02-.1,0v.13c-.18.01-.19-.15-.25,0-.18-.06.16-.15-.02-.2.12.01.24.03.36.03Z" style="fill:#1e1e1e; stroke:#000; stroke-miterlimit:10; stroke-width:.25px;"/><path d="M17.06,16.65c.14.01-.04.24-.11.09.07-.2-.02-.46.11-.09Z" style="fill:#1e1e1e; stroke:#000; stroke-miterlimit:10; stroke-width:.25px;"/><path d="M16.88,15.14c-.07.21-.2.08-.3-.03.1,0,.2.02.3.03Z" style="fill:#1e1e1e; stroke:#000; stroke-miterlimit:10; stroke-width:.25px;"/><path d="M15.48,16.13s.04-.01.04.07c-.05.14-.21-.28-.1-.33.06.06.05.18.06.26Z" style="fill:#1e1e1e; stroke:#000; stroke-miterlimit:10; stroke-width:.25px;"/><path d="M15.36,16c.03.08-.08.08-.09.1,0,0,.05.12-.06.16-.13-.09.1-.31.15-.26Z" style="fill:#1e1e1e; stroke:#000; stroke-miterlimit:10; stroke-width:.25px;"/><path d="M15.23,14.74c.06.09.04.25.2.17v.13c-.12.01-.02-.12-.17-.03l-.03-.26Z" style="fill:#1e1e1e; stroke:#000; stroke-miterlimit:10; stroke-width:.25px;"/><path d="M16.85,16.56c-.24-.04-.04-.04-.1-.2.09.03.11.11.1.2Z" style="fill:#1e1e1e; stroke:#000; stroke-miterlimit:10; stroke-width:.25px;"/><path d="M6.86,18.88l-.2.13c.27-.2-.12-.06-.17-.07,0-.01.08-.16-.06-.11v-.09c.13.05.29.1.43.13Z" style="fill:#5f5f5f; stroke:#000; stroke-miterlimit:10; stroke-width:.25px;"/><path d="M12.22,9.62c-.33-.06-.09.74-.27.33-.32-.06-.29.47-.36.26-.22.08-.92-.04-.76-.12.05.1-.13.3-.16.18-.19.07-.24.2-.32-.1-.32.18-.34-.59.05-.26-.02-.11,0-.13.1-.17,0,.1,0,.2.08.26.21-.18-.15-.44.28-.33-.02-.19-.24-.03-.36-.07.23.09-.17.2-.07.03-.11.01-.06.08-.23.03.55-.31,1.42-.21,2.02-.07Z" style="fill:#1d1d1d; stroke:#000; stroke-miterlimit:10; stroke-width:.25px;"/><path d="M11.33,9.55c-.09.38.29.22.03,0,.16.05.55-.05.53.17l.07.02c-.09.15-.1.12-.16-.02l.03.17-.1-.13c-.1.08-.19.44-.3.36-.07-.06.14-.08.07-.13-.11.08-.27-.26-.2.07l-.3-.08c.46-.21.32-.35-.1-.4l.43-.02Z" style="fill:#1e1e1e; stroke:#000; stroke-miterlimit:10; stroke-width:.25px;"/><path d="M10.73,10.28c.06-.47.08-.06.21-.3.12.09-.11.14.08.26-.09,0-.21.01-.3.03Z" style="fill:#1e1e1e; stroke:#000; stroke-miterlimit:10; stroke-width:.25px;"/><path d="M10.67,10.28c-.05.09-.25.04-.08-.1l.08.1Z" style="fill:#1e1e1e; stroke:#000; stroke-miterlimit:10; stroke-width:.25px;"/><path d="M11.33,10.25s.32-.17.26-.03c-.06.04-.18.02-.26.03Z" style="fill:#1e1e1e; stroke:#000; stroke-miterlimit:10; stroke-width:.25px;"/><path d="M10.9,9.95s-.1-.14-.1,0c-.15-.08,0-.1.05-.2l.05.2Z" style="fill:#1e1e1e; stroke:#000; stroke-miterlimit:10; stroke-width:.25px;"/><path d="M10.2,10.38l.03.03c-.16.08.13.37-.1.5-.08-.2-.17-.09-.3-.2.12-.14-.13-.25.13-.3l-.07.08c.06.04.13-.08.23-.05-.13-.08,0-.11.07-.07Z" style="fill:#1e1e1e; stroke:#000; stroke-miterlimit:10; stroke-width:.25px;"/><path d="M5.71,15.14s-.08.05-.13.03c.32.32-.01.19-.17.26-.03-.03.15-.19,0-.19-.08,0-.08.09-.12-.07.15.02.28-.04.43-.03Z" style="fill:#1e1e1e; stroke:#000; stroke-miterlimit:10; stroke-width:.25px;"/><path d="M12.35,18.55c.09,0,.19-.04.28-.09.05.06.12.09.21.08-.61.92-2.96.99-3.2-.19.91.33,1.74.62,2.71.2Z" style="fill:#1f1f1f; stroke:#000; stroke-miterlimit:10; stroke-width:.25px;"/><path d="M12.65,18.41c.11.04.2-.06.3.03-.58.83-1.8,1.02-2.68.6.28.06.12-.1.26-.13-.07.35.48.24.73.3,0-.08-.03-.19-.13-.2.12-.26.14.14.23.2.16-.19.32.21.3-.3-.02.21.14-.04.1.17l-.07-.03c-.05.14.17.15.13,0,.07.13.2.03.33,0l-.03-.06c.18.06.49-.28.69-.41-.37-.13-.21.03-.46-.02.08-.03.23-.09.3-.13Z" style="fill:#1c1c1c; stroke:#000; stroke-miterlimit:10; stroke-width:.25px;"/><rect x="11" y="18.78" width=".53" height=".03" style="fill:#070707; stroke:#000; stroke-miterlimit:10; stroke-width:.25px;"/><path d="M9.25,9.55c1.42,2.82-1.51,5.24-4.27,4.13-4.39-3.34.57-6.38,4.27-4.13Z" style="fill:#d1d1d1; stroke:#000; stroke-miterlimit:10; stroke-width:.25px;"/><path d="M3.72,9.22c1.11-.48,4.62-.5,5.52.33-1.47-.82-4-.69-5.52-.33Z" style="fill:#111; stroke:#000; stroke-miterlimit:10; stroke-width:.25px;"/><path d="M9.44,9.82c.33.81.11,1.83-.2,2.61.16-.8.47-1.78.17-2.65,0,.01.03.02.03.03Z" style="fill:#dbdbdb; stroke:#000; stroke-miterlimit:10; stroke-width:.25px;"/><path d="M4.98,13.69c.21-.07.44.14.66.03l-.03.07c.59.12,1.23,0,1.79.07-.78.12-1.67.07-2.41-.17Z" style="fill:#d6d6d6; stroke:#000; stroke-miterlimit:10; stroke-width:.25px;"/><path d="M3.69,12.23c-.3-.44-.43-1.96-.23-2.61-.12.85,0,1.79.23,2.61Z" style="fill:#d9d9d9; stroke:#000; stroke-miterlimit:10; stroke-width:.25px;"/><path d="M3.69,12.23c.03.1.13.21.13.33l.1-.07-.1.17c-.03-.13-.21-.32-.13-.43Z" style="fill:#d3d3d3; stroke:#000; stroke-miterlimit:10; stroke-width:.25px;"/><path d="M3.72,9.26c0,.1-.19.15-.23.26-.1-.06.17-.24.23-.3v.03Z" style="fill:#191919; stroke:#000; stroke-miterlimit:10; stroke-width:.25px;"/><path d="M5.48,9.35c.05-.18.7,0,.96-.07-.26.09-.65.03-.96.07Z" style="fill:#dfdfdf; stroke:#000; stroke-miterlimit:10; stroke-width:.25px;"/><path d="M5.48,9.35c4.48-1.26,5.31,4.31.86,4.27-2.77.53-3.91-4.71-.86-4.27Z" style="fill:#fefefe; stroke:#000; stroke-miterlimit:10; stroke-width:.25px;"/><path d="M3.76,10.84c-.06-.21-.06-.51,0-.73-.01.22,0,.5,0,.73Z" style="fill:#c1c1c1; stroke:#000; stroke-miterlimit:10; stroke-width:.25px;"/><path d="M6.34,9.32v.03c-.24,0-.49,0-.73,0,.22-.07.49-.02.73-.03Z" style="fill:#c9c9c9; stroke:#000; stroke-miterlimit:10; stroke-width:.25px;"/><path d="M8.72,12.79c.04-.06.1-.14.13-.2.12.08-.04.25-.13.2Z" style="fill:#d9d9d9; stroke:#000; stroke-miterlimit:10; stroke-width:.25px;"/><path d="M6.83,13.62c-.12.06-.37.06-.5,0,.16,0,.34,0,.5,0Z" style="fill:#c8c8c8; stroke:#000; stroke-miterlimit:10; stroke-width:.25px;"/><path d="M6.47,12.76c-.4-.56-1.83-2.65.07-2.51-.9,2.03,2.09,3.01,1.95.59,1.27,1.03-1.13,2.2-2.02,1.92Z" style="fill:#ebebeb; stroke:#000; stroke-miterlimit:10; stroke-width:.25px;"/><path d="M5.84,9.75c.25.03,1.47-.19,1.26.15.69-.68,2.67,1.67,1.39.94.28,2.32-2.73,1.83-2.04-.52-1.38-.22-.68,1.89.1,2.21-.63.89-1.76-1.38-1.36-2-.89-.27.07-.7.66-.78Z" style="fill:#1d1d1d; stroke:#000; stroke-miterlimit:10; stroke-width:.25px;"/><path d="M4.85,10.41l.4-.03c-.21.3.03,1.11.03,1.45-.19-.36-.21-1.02-.13-1.39-.12.02-.2,0-.3-.03Z" style="fill:#1a1a1a; stroke:#000; stroke-miterlimit:10; stroke-width:.25px;"/><path d="M8.32,10.15c-.33-.12-.87-.3-1.16-.36-1.63-.13.62-.17,1.16.36Z" style="fill:#191919; stroke:#000; stroke-miterlimit:10; stroke-width:.25px;"/><path d="M6.47,9.69v.07c-.14,0-.29,0-.43,0l.03.1-.23-.1c.25-.05.35-.07.63-.07Z" style="fill:#1c1c1c; stroke:#000; stroke-miterlimit:10; stroke-width:.25px;"/><path d="M7.86,10.51c.22.09,0,.49-.24.43-.34-.2-.1-.68.24-.43Z" style="fill:#e5e5e5; stroke:#000; stroke-miterlimit:10; stroke-width:.25px;"/><path d="M6.44,11.37c-.05-.27-.04-.45,0-.73.06.21.06.51,0,.73Z" style="fill:#1b1b1b; stroke:#000; stroke-miterlimit:10; stroke-width:.25px;"/><path d="M7.26,9.82v.23c-.09-.1-.02-.02-.17,0l.07-.16-.1.02c.04-.07.14-.15.2-.08Z" style="fill:#1c1c1c; stroke:#000; stroke-miterlimit:10; stroke-width:.25px;"/><path d="M7.89,10.81c.04-.11.06-.21-.03-.3.12-.16.15.39.03.3Z" style="fill:#0f0f0f; stroke:#000; stroke-miterlimit:10; stroke-width:.25px;"/><path d="M12.98,13.42c.47.78,1.82.78,2.18,1.29.38.61-1.05.08-.76.6,1.41-.09.76.74-.3.43,2.19,1.76-5.64.58-1.49-1.64.31-.08.17-.8.37-.68Z" style="fill:#e9e9e9; stroke:#000; stroke-miterlimit:10; stroke-width:.25px;"/><path d="M11.69,14.88c-.4.29-.15,1.04.23,1.29-.4.03-.75-1.3-.23-1.29Z" style="fill:#151515; stroke:#000; stroke-miterlimit:10; stroke-width:.25px;"/><path d="M14.01,14.18s1.21.18.99.3c-.33-.09-.71-.1-.99-.3Z" style="fill:#101010; stroke:#000; stroke-miterlimit:10; stroke-width:.25px;"/><path d="M14.77,16.03c.06.02.07.07.1.1-.07.02-.15.19-.2.1.36-.23-.39-.16-.56-.3-.11-.19.67-.01.66.1Z" style="fill:#181818; stroke:#000; stroke-miterlimit:10; stroke-width:.25px;"/><path d="M12.45,14.15c-.07.1-.31.14-.4.13.07-.09.27-.1.4-.13Z" style="fill:#151515; stroke:#000; stroke-miterlimit:10; stroke-width:.25px;"/><path d="M12.09,14.28c-.04.12-.07.22-.13.33-.04-.04.05-.34.13-.33Z" style="fill:#171717; stroke:#000; stroke-miterlimit:10; stroke-width:.25px;"/><path d="M15.23,14.74c.37.48-.66.28-.86.36.25-.12.56-.1.83-.13-.03-.07-.02-.2-.03-.26.02.01.06.02.07.03Z" style="fill:#141414; stroke:#000; stroke-miterlimit:10; stroke-width:.25px;"/><path d="M13.41,15.31c0-.26.31-.22.26.03-.06.12-.21.08-.26-.03Z" style="fill:#222; stroke:#000; stroke-miterlimit:10; stroke-width:.25px;"/><path d="M13.41,15.31c-.14-.28.4-.27.26.03-.04-.24-.16-.27-.26-.03Z" style="fill:#191919; stroke:#000; stroke-miterlimit:10; stroke-width:.25px;"/><path d="M14.4,15.31c.16-.09.45,0,.66-.03-.15.1-.46,0-.66.03Z" style="fill:#0d0d0d; stroke:#000; stroke-miterlimit:10; stroke-width:.25px;"/><path d="M16.49,8.96c3.3-.88,3.35,3.23,1.32,4.63-.27.18-1.32.23-.57-.08,5.29-3.73-3.77-6.42-3.99-2.17-1.42-1.86,1.7-2.63,3.24-2.38Z" style="fill:#d1d1d1; stroke:#000; stroke-miterlimit:10; stroke-width:.25px;"/><path d="M13.54,12.3c.76,1.56,2.46,1.22,3.79,1.22l-.31.08c.16.18.29-.2.36.05l-.17-.03.03.07c-.26,0-.41.18-.71.15h.04c-1.08.36-3.82-.52-3.04-1.54Z" style="fill:#d2d2d2; stroke:#000; stroke-miterlimit:10; stroke-width:.25px;"/><path d="M18.97,11.97c-.06.24-.17.54-.3.76-.06-.21.21-.52.23-.76h.07Z" style="fill:#d1d1d1; stroke:#000; stroke-miterlimit:10; stroke-width:.25px;"/><path d="M13.25,12.2c.05-.05.11.01.07.06-.09-.05.15.05.22-.03.19.05-.18.05-.03.2-.18.08-.1-.11-.2.03-.04-.09-.07-.17-.1-.26h.03Z" style="fill:#d3d3d3; stroke:#000; stroke-miterlimit:10; stroke-width:.25px;"/><path d="M13.25,12.2c-.53-1.73.41-.37.03.1.01-.04-.03-.08-.03-.1Z" style="fill:#cfcfcf; stroke:#000; stroke-miterlimit:10; stroke-width:.25px;"/><path d="M18.77,10.15c.99,4.15-5.63,4.94-5.52.69-.57-1.96,5.35-2.07,5.52-.69Z" style="fill:#fefefe; stroke:#000; stroke-miterlimit:10; stroke-width:.25px;"/><path d="M18.77,10.78c0-.21,0-.42,0-.63.07.16.05.46,0,.63Z" style="fill:#c5c5c5; stroke:#000; stroke-miterlimit:10; stroke-width:.25px;"/><path d="M16.06,10.45c-.31-.4.58-.12.72-.09.55.95-.35,1.81-.82,2.41-.92.32-3.15-1.01-1.92-1.92-.23,2.22,2.68,1.59,2.02-.4Z" style="fill:#ebebeb; stroke:#000; stroke-miterlimit:10; stroke-width:.25px;"/><path d="M15.53,9.78c.74-.16,1.88-.12,2.25.63-.79-.12-.15,1.35-.76,1.82-.1.3-1.45.9-.99.25.82-.36,1.38-2.35.06-2.15.03.05.04.09-.02.12.7,2.17-2.47,2.59-2.02.4-1.33.74.69-1.52,1.49-1.06Z" style="fill:#1d1d1d; stroke:#000; stroke-miterlimit:10; stroke-width:.25px;"/><path d="M17.74,10.35c-.2-.13-.64-.73-.94-.46-.18-.27-.91-.09-1.27-.1.11-.27,2.09-.11,2.22.56Z" style="fill:#1a1a1a; stroke:#000; stroke-miterlimit:10; stroke-width:.25px;"/><path d="M17.71,10.41c-.11.01-.22-.02-.33.03.09.61.02,1.29-.36,1.78.52-.45.03-2.06.69-1.82Z" style="fill:#1b1b1b; stroke:#000; stroke-miterlimit:10; stroke-width:.25px;"/><path d="M15.1,9.82c-.38.03-.88.45-1.16.53.29-.24.82-.58,1.16-.53Z" style="fill:#171717; stroke:#000; stroke-miterlimit:10; stroke-width:.25px;"/><path d="M15.46,9.72l.07.07c-.13-.01-.37.07-.46,0,.11-.03.28-.05.4-.07Z" style="fill:#1c1c1c; stroke:#000; stroke-miterlimit:10; stroke-width:.25px;"/><path d="M15.29,10.49c.27.22-.17.61-.36.31-.15-.25.18-.45.36-.31Z" style="fill:#e7e7e7; stroke:#000; stroke-miterlimit:10; stroke-width:.25px;"/><path d="M16.09,11.37c-.02-.16-.03-.67-.03-.93.09.31.09.62.03.93Z" style="fill:#111; stroke:#000; stroke-miterlimit:10; stroke-width:.25px;"/><path d="M16.09,11.37c-.05.28-.1.32-.26.53.07-.17.19-.35.23-.53h.03Z" style="fill:#1b1b1b; stroke:#000; stroke-miterlimit:10; stroke-width:.25px;"/></svg>