<?xml version="1.0" encoding="UTF-8"?>
<svg id="Layer_1" data-name="Layer 1" xmlns="http://www.w3.org/2000/svg" viewBox="0 0 24.84 24.84">
  <defs>
    <style>
      .cls-1 {
        fill: #e7e7e7;
      }

      .cls-2 {
        fill: #1f1f1f;
      }

      .cls-3 {
        fill: #fdfdfd;
      }
    </style>
  </defs>
  <path class="cls-3" d="M24.84,0v24.84H0V0h24.84ZM21.84,9.85c.87-1.63,1.04-3.56.97-5.39-.03-.78-.2-2.5-.66-3.13-.59-.8-1.45-.24-2.07.19-1.36.93-2.52,2.22-3.73,3.33-.69-.21-1.38-.39-2.1-.47-1.28-.15-2.82-.12-4.08.11-.47.09-.94.21-1.39.37l-.07-.03c-.97-.94-1.95-1.91-3-2.76C4.41,1.03,3.07.02,2.53,2.37c-.46,1.97-.37,5.19.48,7.05.05.11.23.35.24.42s0,.04-.04.06c-.15.06-.35.03-.45.2s-.14.86-.02,1.02.49.09.45.34c-.38.92-.71,2.31-1.72,2.72-.11.04-.48.11-.48.21,0,.06.14.31.18.37.28.44.76.66,1.23.83-.11.12-.24.22-.36.33-.06.05-.31.2-.32.21-.05.08.36.55.44.63.26.27.56.49.83.76-.44.23-.89.42-1.31.69-.18.11-.8.47-.35.59.36-.17.71-.38,1.08-.54.22-.1.71-.33.91-.37.05-.01.1-.02.14.01l1.24.93.04.08c-.48.29-1,.64-1.41,1.02-.09.08-.55.48-.37.6s.57-.31.72-.42c.22-.16.44-.32.67-.47.19-.12.56-.38.75-.46.04-.02.08-.04.13-.01l1.24.73c-.11.58-.48,1.11-.86,1.55v.05c.29.19.56.44.86.64,3.13,2.13,7.19,2.52,10.63.9.88-.41,1.71-.92,2.43-1.56-.2-.28-.94-1.26-.86-1.58.02-.07,1.12-.58,1.24-.73.06-.02.09.02.14.04.25.11.64.38.88.53.28.19.76.65,1,.76.16.08.11,0,.19-.12.02-.03.09,0,.07-.08-.53-.55-1.14-1-1.79-1.4l.04-.08,1.24-.93c.07-.04.13-.01.2,0,.61.16,1.29.63,1.87.88.13.06.25-.03.23-.17-.01-.1-.34-.33-.44-.39-.42-.27-.94-.49-1.39-.7.34-.36.75-.66,1.07-1.05.05-.06.24-.29.2-.36-.01-.02-.3-.2-.36-.25-.11-.09-.23-.18-.33-.29.61-.21,1.23-.58,1.41-1.24-.35-.12-.62-.19-.91-.44-.49-.41-.75-1.03-.97-1.61-.04-.12-.32-.87-.32-.92,0-.17.37-.12.46-.29.1-.18.08-.81-.03-.99-.1-.18-.33-.17-.5-.24Z"/>
  <path class="cls-2" d="M21.84,9.85c.17.07.39.07.5.24.11.18.14.81.03.99-.09.17-.45.13-.46.29,0,.05.27.81.32.92.22.58.48,1.2.97,1.61.29.24.56.31.91.44-.19.66-.8,1.03-1.41,1.24.1.11.21.2.33.29.06.05.34.23.36.25.04.07-.15.29-.2.36-.32.39-.72.69-1.07,1.05.45.21.97.43,1.39.7.1.06.42.29.44.39.02.14-.11.22-.23.17-.58-.25-1.27-.73-1.87-.88-.07-.02-.13-.05-.2,0l-1.24.93-.04.08c.65.39,1.27.85,1.79,1.4.02.07-.04.04-.07.08-.08.11-.04.19-.19.12-.23-.11-.72-.58-1-.76-.24-.16-.63-.42-.88-.53-.05-.02-.08-.06-.14-.04-.12.15-1.23.66-1.24.73-.07.32.67,1.29.86,1.58-.73.64-1.56,1.15-2.43,1.56-3.44,1.61-7.5,1.23-10.63-.9-.3-.2-.56-.45-.86-.64v-.05c.39-.44.75-.96.86-1.55l-1.24-.73s-.08,0-.13.01c-.19.08-.56.33-.75.46-.23.15-.45.31-.67.47-.15.11-.54.54-.72.42s.28-.51.37-.6c.41-.38.93-.73,1.41-1.02l-.04-.08-1.24-.93s-.09-.02-.14-.01c-.21.04-.69.27-.91.37-.37.16-.71.37-1.08.54-.45-.12.17-.47.35-.59.41-.27.87-.46,1.31-.69-.26-.26-.57-.48-.83-.76-.08-.09-.49-.55-.44-.63,0-.02.26-.16.32-.21.13-.1.25-.2.36-.33-.48-.17-.95-.39-1.23-.83-.04-.07-.18-.31-.18-.37,0-.1.37-.16.48-.21,1.01-.42,1.34-1.81,1.72-2.72.04-.25-.34-.19-.45-.34-.12-.16-.08-.84.02-1.02s.31-.14.45-.2c.04-.02.06,0,.04-.06s-.19-.31-.24-.42c-.85-1.85-.93-5.08-.48-7.05.55-2.35,1.89-1.34,3.18-.3,1.05.84,2.03,1.82,3,2.76l.07.03c.45-.16.92-.28,1.39-.37,1.27-.23,2.81-.26,4.08-.11.72.08,1.41.26,2.1.47,1.21-1.11,2.37-2.4,3.73-3.33.62-.43,1.48-.99,2.07-.19.46.62.63,2.34.66,3.13.08,1.83-.09,3.76-.97,5.39ZM9.68,5.38s-.73.21-.83.25-.5.26-.53.26c-.02,0-.03,0-.04-.01-.75-.88-1.52-1.74-2.36-2.54-.46-.43-.94-.87-1.45-1.23-.26-.19-.75-.61-1-.22-.23.34-.4,1.59-.42,2.03-.09,1.6-.04,3.18.46,4.71.06.18.33.76.34.87,0,.1-.07.11-.1.19,1.21-.17,2.37-.31,3.6-.28.91.03,2.96.13,3.66.71.26.21.37.48.5.77.7-.19,1.43-.18,2.13,0,.21-.93,1.14-1.18,1.97-1.31,1.54-.24,3.13-.22,4.66-.02.36.05.72.08,1.07.15.04-.08-.1-.15-.1-.16,0-.08.33-.82.39-.99.58-1.7.64-4.48.2-6.22-.21-.82-.42-.75-1.06-.33-.52.34-1.08.85-1.54,1.28-.85.8-1.6,1.68-2.38,2.55-.22-.09-1.3-.58-1.46-.46-.03.02-.14.53-.17.62-.22.65-.68,1.45-1.16,1.95-.18.18-.31.21-.29-.09.02-.46.14-.97.17-1.45.03-.44.04-.88.03-1.33-.21.02-.41-.05-.62,0-.05.62-.11,1.25-.22,1.87-.04.22-.38,1.79-.5,1.82-.04,0-.16.01-.19-.02-.39-1.2-.6-2.45-.72-3.7l-.62.03c0,.48.03.96.07,1.43.02.2.21,1.46.17,1.53-.1.16-.4-.2-.48-.29-.58-.67-.97-1.54-1.17-2.39ZM6.26,10.21c-.77.04-1.86.07-1.96,1.04-.1,1.02.25,3.15,1.23,3.7,1.16.64,3.66.63,4.56-.49.64-.81,1.2-3.23.07-3.82-.75-.39-3.02-.48-3.9-.42ZM17.63,10.21c-.68.03-2.27.14-2.83.48-.33.2-.48.67-.51,1.04-.07.99.29,2.56,1.16,3.15,1,.68,3.53.65,4.42-.18.64-.61.95-2.46.9-3.31-.05-.79-.41-.97-1.13-1.08-.65-.1-1.36-.13-2.02-.1ZM14.09,14.54c.03-.14-.06-.24-.1-.36-.17-.49-.36-1.07-.41-1.59-.04-.47.16-.72-.41-.9-.48-.15-1.17-.12-1.59.18-.07.28-.04.6-.08.89-.04.27-.13.59-.21.86-.04.14-.29.82-.23.89.97-.26,2.08-.32,3.03.03ZM21.46,14.95h.84c.07,0,.39-.08.47-.11.05-.02.3-.14.3-.18-.37-.27-.68-.5-.94-.89-.31-.45-.47-.98-.7-1.47-.17,1.25-.48,2.68-1.71,3.29-.48.24-1.13.37-1.67.4-.3.02-.69-.04-.97,0-.05,0-.06-.02-.05.05,0,.05.1.42.13.43.08.05.84.05,1.03.07.58.06,1.19.18,1.75.31.23.05,1.13.36,1.27.34.1-.02.16-.11.2-.2-.2-.07-.41-.13-.6-.25-.05-.03-.23-.12-.16-.2.06-.07,1.58-.17,1.79-.31.02-.03-.49-.43-.54-.48-.1-.1-.57-.68-.46-.79ZM7.99,15.99c-1.21.04-2.75-.04-3.53-1.1-.29-.4-.52-.99-.64-1.46-.03-.11-.17-1.01-.23-1.01-.35.69-.54,1.39-1.15,1.91-.08.07-.43.27-.45.29-.07.1.37.25.44.26.4.11.8.07,1.21.11-.08.26-.23.51-.41.7s-.41.34-.58.53l1.76.35c.1.13-.77.39-.86.41l.27.24c1.29-.43,2.65-.67,4.01-.73.14-.05.14-.36.17-.5ZM12.51,15.23c.19.06,1.26-.18.7-.41-.22-.09-1.42-.13-1.49.08-.09.27.65.27.77.46l.02-.14ZM9.29,16.85c-.25.04-.59-.03-.84,0,.01.07.11.44.16.45.24.06.91-.21,1.08.01.03.04.04.04.02.09-.09.16-.63.18-.79.24-.04.02-.02.04-.02.07.76.56,1.8.57,2.64.18.61-.28.84-.67.76-1.36-.22-.19-.43-.26-.55-.55-.03-.07-.01-.18-.06-.22-.03-.03-.22-.05-.3-.08-.38-.15-.56-.42-.55-.83-.12,0-.34.29-.45.38-.41.34-.9.57-1.42.68-.11.03-.27-.01-.37.08-.05.05-.19.45-.16.48.17,0,.91.05.98.17.07.11-.04.19-.14.21ZM16.61,16.85h-.81s-.15-.1-.15-.12c-.03-.16.6-.24.7-.25.21-.01.38.14.24-.25-.13-.35-.22-.26-.5-.33-.57-.14-1.03-.34-1.46-.74-.15-.13-.21-.35-.43-.31.12.3-.07.61-.32.76-.13.08-.38.11-.44.15-.02.01-.13.31-.21.41-.14.17-.27.18-.41.32-.09.71.09,1.09.73,1.4.82.38,1.94.4,2.64-.23-.12-.06-.95-.12-.78-.36.13-.19.87.05,1.06,0,.06-.01.16-.37.13-.45ZM7.92,16.88c-1.1.05-2.26.24-3.31.56-.08.02-.26.06-.32.09-.1.05.04.08.06.1.15.14.93.76,1.08.79.03,0,.06,0,.09,0,.81-.4,1.66-.75,2.54-.96l-.14-.58ZM20.78,17.57c-1.16-.39-2.39-.64-3.61-.69l-.14.58c.52.12,1.02.3,1.51.5.17.07.93.47,1.02.47s.38-.22.48-.28c.06-.04.78-.54.75-.58ZM10.06,18.71c-.36-.04-.93-.27-1.24-.47-.13-.08-.48-.43-.57-.43-.18,0-.79.24-.99.32-.44.17-.88.37-1.3.58-.03.04.5.35.56.38.61.34,1.32.66,1.98.92.17.07,1.23.4,1.27.46.02.03.02.13.02.14-.02.02-.49.04-.57.03l-.33.07s.06.02.08.04c.2.22.46.43.71.59.14.09.89.43.92.47.01.02.01.19,0,.2-.04.04-.73.04-.84.04-.59-.03-1.31-.24-1.84-.48-.03-.01-.08-.16-.21-.1-.04.04.12.2.14.24.14.26.19.49.48.64,1.85,1.03,4.53,1.11,6.52.63.01,0,.02,0,.03,0,.72-.18,1.77-.38,2.2-1.02.03-.05.3-.44.1-.38-.22.06-.47.21-.71.29-.55.16-1.17.24-1.74.19-.07,0-.45-.08-.36-.2.02-.03.51-.2.6-.25.47-.23.93-.54,1.3-.91-.34-.1-.69,0-1.03-.1-.03,0-.1,0-.05-.05.51-.27,1.07-.39,1.6-.6.8-.32,1.56-.73,2.31-1.15.01-.05,0-.06-.04-.08-.14-.14-.96-.45-1.19-.54-.17-.07-.91-.35-1.04-.35-.1,0-.36.28-.47.36-.34.25-.82.44-1.24.5-.6.09-1.35-.06-1.91-.31-.24-.11-.45-.27-.69-.37-.7.45-1.61.81-2.47.72Z"/>
  <path class="cls-3" d="M10.06,18.71c-.05.22-.15.12-.03.36.19.37.47.58.78.84.03.03.03.08.04.08-.2.09.2.44.29.52.99.8,2.83.51,3.32-.72.08-.19.13-.16.26-.31.19-.22.42-.48.4-.79.42-.07.89-.26,1.24-.5.11-.08.37-.36.47-.36.13,0,.86.28,1.04.35.23.09,1.05.4,1.19.54.03.03.05.03.04.08-.75.42-1.51.84-2.31,1.15-.53.21-1.1.34-1.6.6-.04.04.02.04.05.05.34.1.7,0,1.03.1-.37.37-.83.67-1.3.91-.09.04-.58.22-.6.25-.09.13.29.2.36.2.57.05,1.19-.03,1.74-.19.25-.07.49-.22.71-.29.21-.06-.07.34-.1.38-.43.64-1.48.85-2.2,1.02l.1-.14c-.13-.01-.25-.02-.14.14-1.99.48-4.67.4-6.52-.63-.28-.16-.33-.38-.48-.64l.07-.14c.54.25,1.25.45,1.84.48.11,0,.8,0,.84-.04,0,0,.01-.18,0-.2-.03-.04-.78-.38-.92-.47-.25-.16-.52-.37-.71-.59-.02-.03-.04-.05-.08-.04l.33-.07c.07,0,.55-.01.57-.03,0,0,0-.11-.02-.14-.04-.06-1.1-.39-1.27-.46-.66-.25-1.37-.57-1.98-.92-.06-.03-.59-.35-.56-.38.42-.21.86-.41,1.3-.58.21-.08.81-.33.99-.32.09,0,.44.35.57.43.31.2.88.43,1.24.47ZM14.76,22.77v.03s.02-.02,0-.03Z"/>
  <path class="cls-3" d="M21.46,14.95c-.11.11.37.7.46.79.05.05.56.45.54.48-.21.14-1.73.24-1.79.31-.06.08.11.17.16.2.18.11.4.18.6.25-.03.09-.1.18-.2.2-.14.03-1.04-.28-1.27-.34-.57-.14-1.17-.25-1.75-.31-.18-.02-.95-.02-1.03-.07-.02-.01-.13-.38-.13-.43,0-.07,0-.04.05-.05.28-.04.67.02.97,0,.54-.03,1.18-.16,1.67-.4,1.23-.61,1.54-2.04,1.71-3.29.23.49.39,1.02.7,1.47.26.38.57.62.94.89,0,.04-.25.16-.3.18-.08.03-.41.11-.47.11h-.84Z"/>
  <path class="cls-3" d="M7.99,15.99c-.03.14-.03.45-.17.5-1.36.07-2.72.3-4.01.73l-.27-.24c.09-.02.96-.28.86-.41l-1.76-.35c.17-.19.41-.34.58-.53s.33-.45.41-.7c-.41-.05-.81,0-1.21-.11-.07-.02-.51-.16-.44-.26.02-.02.36-.22.45-.29.62-.52.81-1.22,1.15-1.91.06,0,.2.9.23,1.01.12.48.35,1.07.64,1.46.78,1.06,2.32,1.15,3.53,1.1Z"/>
  <path class="cls-1" d="M9.29,16.85c.1-.02.21-.1.14-.21-.08-.12-.81-.18-.98-.17-.03-.03.11-.43.16-.48.09-.09.26-.05.37-.08.52-.11,1.01-.34,1.42-.68.1-.09.33-.38.45-.38-.02.42.16.68.55.83.08.03.27.05.3.08.05.04.03.15.06.22.13.29.33.36.55.55.08.69-.15,1.08-.76,1.36-.84.39-1.88.38-2.64-.18,0-.03-.02-.05.02-.07.16-.06.71-.08.79-.24.03-.05.01-.05-.02-.09-.18-.23-.84.04-1.08-.01-.05-.01-.15-.37-.16-.45.26-.03.6.04.84,0ZM10.08,16.61c-.14.04-.13.28.03.3.25.04.29-.4-.03-.3Z"/>
  <path class="cls-1" d="M15.13,18.67c.03.31-.21.57-.4.79-.13.15-.18.12-.26.31-.2.01-.37.19-.56.29-.99.52-1.95.41-2.93-.07-.04-.02-.13,0-.14-.02,0,0,0-.06-.04-.08-.32-.25-.59-.47-.78-.84-.12-.23-.02-.13.03-.36.85.1,1.76-.27,2.47-.72.24.1.45.26.69.37.55.25,1.3.41,1.91.31Z"/>
  <path class="cls-1" d="M16.61,16.85c.03.08-.07.43-.13.45-.2.05-.93-.19-1.06,0-.17.25.65.3.78.36-.7.63-1.82.62-2.64.23-.64-.3-.81-.68-.73-1.4.13-.14.27-.15.41-.32.08-.1.19-.4.21-.41.06-.04.3-.07.44-.15.25-.15.44-.47.32-.76.22-.04.28.18.43.31.44.4.9.6,1.46.74.28.07.37-.02.5.33.14.38-.03.24-.24.25-.11,0-.74.09-.7.25,0,.03.13.12.15.12h.81ZM15.05,16.62c-.16-.17-.43.17-.23.28s.38-.14.23-.28Z"/>
  <path class="cls-1" d="M6.26,10.21c.88-.05,3.15.03,3.9.42,1.13.59.58,3.01-.07,3.82-.89,1.13-3.4,1.14-4.56.49-.98-.55-1.33-2.67-1.23-3.7.1-.97,1.19-1,1.96-1.04ZM6.16,10.62c-.51.03-1.33,0-1.43.64-.13.75.1,2.51.59,3.11.67.81,2.96.85,3.85.44.98-.45,1.38-1.99,1.3-2.97-.07-.81-.44-.94-1.16-1.08-.94-.18-2.19-.19-3.15-.14Z"/>
  <path class="cls-1" d="M17.63,10.21c.66-.03,1.37,0,2.02.1.72.11,1.07.29,1.13,1.08.06.85-.26,2.7-.9,3.31-.89.84-3.42.86-4.42.18-.87-.59-1.23-2.15-1.16-3.15.03-.37.18-.84.51-1.04.56-.34,2.15-.45,2.83-.48ZM20.18,10.9c-.15-.15-.74-.23-.97-.25-.99-.1-3.04-.08-3.96.24-.78.27-.69,1.31-.56,1.97.41,2.02,1.62,2.42,3.55,2.16,1.41-.19,1.83-.77,2.04-2.12.07-.43.2-1.69-.11-1.99Z"/>
  <path class="cls-3" d="M14.09,14.54c-.96-.35-2.06-.3-3.03-.03-.06-.07.19-.75.23-.89.07-.27.17-.59.21-.86.04-.29,0-.61.08-.89.42-.3,1.11-.33,1.59-.18.57.18.36.43.41.9.05.51.25,1.1.41,1.59.04.12.13.22.1.36Z"/>
  <path class="cls-3" d="M7.92,16.88l.14.58c-.88.21-1.73.56-2.54.96-.03,0-.06,0-.09,0-.15-.02-.93-.65-1.08-.79-.02-.02-.16-.05-.06-.1.06-.03.24-.07.32-.09,1.06-.32,2.21-.51,3.31-.56Z"/>
  <path class="cls-3" d="M20.78,17.57s-.68.54-.75.58c-.1.07-.39.28-.48.28s-.85-.4-1.02-.47c-.49-.2-1-.38-1.51-.5l.14-.58c1.23.05,2.45.29,3.61.69Z"/>
  <path class="cls-3" d="M12.51,15.23l-.02.14c-.12-.19-.86-.2-.77-.46.07-.22,1.26-.18,1.49-.08.57.23-.51.46-.7.41Z"/>
  <path class="cls-1" d="M7.92,21.57l-.07.14s-.18-.2-.14-.24c.13-.05.18.09.21.1Z"/>
  <path class="cls-1" d="M14.85,22.98c-.11-.16,0-.15.14-.14l-.1.14s-.02,0-.03,0Z"/>
  <path class="cls-2" d="M20.05,7.65s.32.5.35.56c.1.19.24.48.24.69,0,.05.02.1-.05.09-.81-.96-1.61-1.91-2.67-2.61.55-1.16,1.39-2.15,2.38-2.96.11-.09.61-.48.71-.5.05,0,.06,0,.05.05-.02.09-.34.46-.42.58-.22.32-.73.99-.85,1.32-.02.05-.02.1.04.08.11-.03.74-.34.81-.27-.27.6-.83,1-1.27,1.46.16.05.42-.12.57-.12h.69c.17,0-.13.28-.17.31-.21.19-.47.31-.67.5.35.16.75.4.83.81h-.55Z"/>
  <path class="cls-2" d="M4.58,8.75s.09-.41.12-.48c.09-.22.24-.41.33-.62l-.62-.05c.13-.32.41-.6.71-.77.04-.02.36-.13.32-.18-.17-.1-1.31-.65-1.31-.78.45-.24.99.01,1.43.08.14.02.09-.06.03-.14-.2-.26-.54-.49-.76-.72-.06-.06-.45-.54-.46-.58,0-.02.02-.11.05-.12l.67.22c-.06-.18-.15-.35-.23-.52-.08-.15-.42-.64-.41-.74,0-.02.02-.09.05-.1.09,0,.41.28.5.36.76.65,1.53,1.56,2,2.44.05.09.17.27.1.35-.61.41-1.18.92-1.67,1.46-.16.18-.51.71-.67.81-.04.03-.14.08-.17.05Z"/>
  <path class="cls-2" d="M17.39,8.69s.01.15-.05.16l-1.94.35c.04-.41.72-.69,1.09-.72.17-.01.82.07.91.21Z"/>
  <path class="cls-2" d="M7.69,8.82c-.09-.12.19-.22.27-.25.67-.23,1.36,0,1.76.58-.03.05-.07.05-.12.06-.15.01-.67-.16-.87-.2-.15-.03-1-.15-1.04-.19Z"/>
  <path class="cls-2" d="M14.47,19.78c-.49,1.24-2.33,1.52-3.32.72-.09-.07-.49-.42-.29-.52.01,0,.09,0,.14.02.98.48,1.93.58,2.93.07.18-.1.35-.28.56-.29Z"/>
  <path class="cls-1" d="M14.76,22.77s.02.02,0,.03v-.03Z"/>
  <path class="cls-2" d="M10.08,16.61c.32-.09.28.34.03.3-.16-.02-.17-.26-.03-.3Z"/>
  <path class="cls-2" d="M15.05,16.62c.14.15-.03.4-.23.28s.07-.45.23-.28Z"/>
  <path class="cls-3" d="M6.16,10.62c.96-.05,2.21-.04,3.15.14.73.14,1.1.27,1.16,1.08.08.99-.32,2.53-1.3,2.97-.89.41-3.18.37-3.85-.44-.5-.6-.72-2.36-.59-3.11.11-.63.92-.61,1.43-.64ZM10.03,12.37s.06.01.07-.02c.12-.42-.54-.9-.86-1.06-.72-.36-1.97-.44-2.73-.21-.3.09-.65.3-.72.62.01.06.29.06.35.06-.02.66-.03,1.4.45,1.91.18.2.69.52.97.5.13,0,.07-.14.12-.14.05,0,.15.07.23.08,1.02.21,1.85-.29,2.09-1.31.02-.07.03-.4.04-.42Z"/>
  <path class="cls-3" d="M20.18,10.9c.31.31.17,1.56.11,1.99-.21,1.36-.64,1.94-2.04,2.12-1.93.26-3.15-.14-3.55-2.16-.13-.66-.22-1.71.56-1.97.92-.32,2.98-.34,3.96-.24.23.02.82.1.97.25ZM17.43,14.06c-.04.15.13.11.22.1.14-.02.36-.12.49-.2.76-.45.91-1.39.8-2.21l.38-.03c-.16-.56-.85-.73-1.36-.76-.71-.05-1.58.03-2.21.37-.33.18-.88.62-.77,1.05,0,.04.07.02.07.02.02.03.05.39.08.49.21.81.92,1.34,1.76,1.27.06,0,.51-.09.53-.1Z"/>
  <path class="cls-3" d="M9.68,5.38c.2.86.6,1.72,1.17,2.39.07.09.38.44.48.29.04-.07-.15-1.32-.17-1.53-.04-.47-.06-.95-.07-1.43l.62-.03c.12,1.25.33,2.51.72,3.7.02.03.15.03.19.02.12-.03.46-1.6.5-1.82.11-.61.17-1.25.22-1.87.2-.05.41.02.62,0,0,.44,0,.88-.03,1.33-.03.48-.15.99-.17,1.45-.01.3.12.27.29.09.48-.5.94-1.29,1.16-1.95.03-.1.14-.6.17-.62.16-.11,1.23.38,1.46.46.78-.86,1.54-1.75,2.38-2.55.46-.43,1.02-.94,1.54-1.28.65-.42.85-.49,1.06.33.44,1.74.37,4.51-.2,6.22-.06.17-.39.91-.39.99,0,.01.14.07.1.16-.35-.08-.71-.11-1.07-.15-1.54-.2-3.12-.22-4.66.02-.83.13-1.76.38-1.97,1.31-.7-.19-1.43-.19-2.13,0-.14-.29-.25-.56-.5-.77-.71-.58-2.75-.69-3.66-.71-1.23-.03-2.39.1-3.6.28.04-.07.11-.09.1-.19,0-.12-.28-.69-.34-.87-.5-1.53-.55-3.11-.46-4.71.03-.44.19-1.69.42-2.03.25-.38.74.04,1,.22.51.36,1,.8,1.45,1.23.84.79,1.61,1.65,2.36,2.54.01.01.03.01.04.01.03,0,.43-.22.53-.26s.8-.28.83-.25ZM20.05,7.65h.55c-.08-.41-.48-.65-.83-.81.21-.19.47-.31.67-.5.04-.03.34-.31.17-.31h-.69c-.15,0-.41.17-.57.12.45-.46,1-.87,1.27-1.46-.07-.07-.7.24-.81.27-.07.02-.06-.03-.04-.08.12-.33.62-1,.85-1.32.08-.12.4-.49.42-.58,0-.05,0-.06-.05-.05-.09.02-.6.41-.71.5-.99.81-1.83,1.8-2.38,2.96,1.06.7,1.86,1.65,2.67,2.61.08.01.05-.03.05-.09,0-.22-.13-.5-.24-.69-.04-.06-.38-.54-.35-.56ZM4.58,8.75s.13-.02.17-.05c.16-.11.51-.63.67-.81.49-.54,1.06-1.05,1.67-1.46.08-.08-.05-.26-.1-.35-.48-.88-1.25-1.79-2-2.44-.09-.08-.41-.36-.5-.36-.02,0-.04.08-.05.1,0,.11.33.59.41.74.09.17.18.34.23.52l-.67-.22s-.05.09-.05.12c0,.04.4.51.46.58.22.23.56.46.76.72.06.07.11.16-.03.14-.45-.07-.99-.33-1.43-.08,0,.13,1.14.68,1.31.78.03.05-.29.16-.32.18-.3.17-.58.45-.71.77l.62.05c-.09.22-.24.4-.33.62-.03.07-.16.44-.12.48ZM7.69,8.82s.89.16,1.04.19c.2.04.72.21.87.2.05,0,.09,0,.12-.06-.4-.58-1.08-.81-1.76-.58-.09.03-.37.14-.27.25ZM17.39,8.69c-.08-.14-.74-.23-.91-.21-.37.03-1.04.31-1.09.72l1.94-.35c.06-.02.08-.11.05-.16Z"/>
  <path class="cls-2" d="M7.55,14.16c-.27.02-.78-.3-.97-.5-.48-.52-.47-1.25-.45-1.91-.06,0-.34,0-.35-.06.07-.32.42-.53.72-.62.76-.23,2.01-.15,2.73.21.32.16.98.64.86,1.06,0,.04-.07.02-.07.02-.08,0-.33-.22-.38-.17.13.91-.68,1.89-1.61,1.35-.66-.38-.66-1.36-.42-2-.04-.03-.72.04-.79.09-.15.1-.19.65-.17.82.04.55.29.98.69,1.34.14.12.32.11.21.36ZM9.05,12.12c.07-.12-.03-.31-.16-.36-.46-.15-.44.55-.03.46.02,0,.18-.1.19-.1Z"/>
  <path class="cls-1" d="M7.55,14.16c.11-.25-.07-.24-.21-.36-.4-.36-.65-.8-.69-1.34-.01-.18.02-.72.17-.82.08-.05.75-.12.79-.09-.24.64-.24,1.62.42,2,.93.54,1.74-.44,1.61-1.35.05-.05.3.17.38.17-.01.02-.03.35-.04.42-.23,1.02-1.07,1.52-2.09,1.31-.07-.02-.18-.08-.23-.08-.05,0,.01.13-.12.14Z"/>
  <path class="cls-2" d="M15.06,12.4s-.06.01-.07-.02c-.11-.43.44-.87.77-1.05.63-.35,1.5-.42,2.21-.37.51.03,1.2.2,1.36.76l-.38.03c.11.82-.04,1.76-.8,2.21-.13.07-.35.18-.49.2-.09.01-.26.05-.22-.1,0,0,0-.06.04-.08.52-.35.89-.75.96-1.42.02-.2.01-.79-.16-.91-.08-.05-.77-.13-.8-.1.37.76.07,2.2-.98,2.17-.47-.02-1.06-.58-1.06-1.05v-.5c-.13.07-.29.13-.38.24ZM16.38,12.15c.19.23.61-.08.38-.33-.19-.22-.6.06-.38.33Z"/>
  <path class="cls-1" d="M15.06,12.4c.09-.11.25-.17.38-.24v.5c0,.47.58,1.03,1.06,1.05,1.04.04,1.34-1.41.98-2.17.04-.03.73.05.8.1.17.12.18.71.16.91-.07.67-.44,1.06-.96,1.42-.03.02-.03.08-.04.08-.02.01-.48.1-.53.1-.85.07-1.56-.45-1.76-1.27-.02-.1-.06-.46-.08-.49Z"/>
  <path class="cls-1" d="M9.05,12.12s-.17.1-.19.1c-.41.09-.43-.61.03-.46.13.04.23.24.16.36Z"/>
  <path class="cls-1" d="M16.38,12.15c-.22-.27.19-.56.38-.33.22.26-.2.56-.38.33Z"/>
</svg>