<?xml version="1.0" encoding="UTF-8"?><svg id="Layer_2" xmlns="http://www.w3.org/2000/svg" width="23.3" height="22.83" viewBox="0 0 23.3 22.83"><g id="Layer_1-2"><path d="M15.67,4.41c.09-.14.19-.29.3-.41.98-1.17,2.04-2.32,3.29-3.2,2.03-1.44,2.83-.86,3.23,1.47s.07,4.49-.5,6.64c1.12.11,1.13,1.48.42,2.1-.09.08-.46.27-.47.29-.07.12.13,1.34.18,1.57.12.63.36,1.7.71,2.23.21.32.64.37.41.83-.03.06-.12.17-.17.23-.36.43-.88.82-1.25,1.25.37.27,1.03.61.78,1.18-.35.77-1.19-.08-1.63-.29l-1.22,1.16c.34.44,1.32.75,1.09,1.43-.07.2-.32.36-.52.34-.39-.04-1.2-.88-1.6-1.04-.79.66-1.64,1.16-2.55,1.62-2.73,1.37-6.36,1.34-9.09,0-.93-.45-1.76-.95-2.55-1.62l-1.32.96c-.43.25-.83-.11-.76-.57s.78-.79,1.08-1.1l-1.15-1.17c-.45.12-1.1.95-1.55.43-.25-.29-.12-.69.13-.93.09-.09.56-.33.54-.4-.37-.42-.86-.79-1.21-1.22-.17-.2-.37-.42-.23-.7.05-.1.18-.15.24-.22.51-.59.73-1.65.87-2.41.04-.21.24-1.51.19-1.6-1.04-.38-1.35-2.14-.03-2.36-.24-.86-.45-1.74-.54-2.63-.15-1.32-.2-4.94.73-5.95.65-.71,1.62-.14,2.27.27,1.14.72,2.13,1.71,3.01,2.72.13.15.83,1.06.91,1.08.33-.07.66-.22.99-.3,1.85-.48,4.23-.48,6.07.02.13.04.88.31.92.28ZM13.18,5.11h-.83c-.01.66-.1,1.35-.23,2-.04.22-.21,1.03-.33,1.16-.04.04-.09.07-.14.07-.2,0-.33-.69-.37-.86-.17-.76-.26-1.59-.3-2.36h-.87l.25,2.77c-.39.23-.75-.43-.9-.73-.25-.51-.43-1.1-.59-1.65-.03-.03-.75.22-.85.25-.14.05-.6.28-.71.24-.58-.68-1.12-1.39-1.72-2.05-.92-1.01-1.93-2.1-3.12-2.79-.18.04-.42,1.49-.45,1.73-.16,1.32-.08,2.67.15,3.97.11.59.25,1.16.43,1.73.52-.09,1.05-.09,1.58-.11,1.55-.06,3.24-.09,4.74.34.58.16.73.28,1.12.73.16.19.33.41.44.63.09.04.06-.06.1-.07.4-.1,1.7-.06,2.14,0,.07,0,.05.07.07.08.12.03.08-.06.13-.12.31-.41.72-.97,1.21-1.15.96-.36,2.14-.36,3.16-.47h1.67s1.8.13,1.8.13c.56-1.82.82-3.83.57-5.73-.07-.57-.2-1.18-.45-1.69-.62.33-1.13.79-1.63,1.27-1.16,1.11-2.16,2.36-3.21,3.57l-1.6-.52c-.18.55-.33,1.16-.59,1.68-.15.3-.47.89-.87.76l.22-2.81ZM8.38,10.12c-.93-.44-3.74-.44-4.75-.22-.48.11-.6.33-.68.81-.18,1.05.13,3.45,1.16,4.02.88.49,3.26.52,4.06-.14.72-.59,1.11-2.52,1.01-3.41-.05-.47-.4-.87-.81-1.06ZM14.87,10.17c-.31.17-.53.32-.67.66-.36.88.14,3.18.9,3.8s3.26.57,4.11.05c.97-.6,1.43-3.28,1.06-4.27-.12-.31-.22-.42-.55-.5-.99-.22-3.9-.21-4.8.21-.03.01-.03.05-.04.05ZM21.2,14.43c-1.04,1.57-2.81,2.07-4.63,1.96-2.29-.14-3.3-1.32-3.74-3.47-.06-.27-.1-1.01-.26-1.19-.23-.24-1.46-.19-1.77-.06-.2.08-.2.25-.24.44-.09.39-.12.8-.22,1.2-.38,1.59-1.13,2.58-2.78,2.95-1.91.43-4.39-.03-5.42-1.86l-.48,1.32,1.17,1.32c.92-.23,1.93-.28,2.87-.17.31.04,1.2.18,1.28.53.1.44-.22.79-.66.77s-1.07-.12-1.53-.18c-.07,0-.03-.07-.1-.08-.26-.03-.6.03-.87,0-.08.08.04.07.07.11.34.33.72.62,1.07.93.08.04.55-.33.85-.13.26.17.2.43.1.68,0,.06.41.38.49.44,2.72,2.04,6.98,2.08,9.9.45.17-.1,1.14-.73,1.17-.86,0-.04-.08-.18-.09-.26-.12-.7.61-.53,1-.31h.05c.34-.31.72-.57,1.05-.88.05-.04.12-.09.11-.16-.3.03-.67-.04-.96,0-.07,0-.05.07-.08.07-.14.03-.41.02-.57.04-.33.04-.89.18-1.19.13-.43-.07-.66-.76-.23-1.01.58-.34,1.99-.37,2.66-.32.35.03.86.18,1.16.18.16,0,.38-.27.51-.4.28-.29.53-.61.8-.91l-.46-1.27Z"/><path d="M13.12,16.12c-.26.29-.62.49-.92.73-.01.37-.01,1.08.26,1.35.33.33.88.29,1.31.18.35-.09,1.17-.64,1.39-.15.18.39-.2.8-.51.99-.86.53-2.21.48-3.05-.08-.8.6-2.72.64-3.31-.24-.16-.24-.28-.76.1-.87s1,.38,1.47.42c.99.09,1.22-.44,1.25-1.32.02-.46-.16-.38-.47-.62-.48-.37-.98-.83-.75-1.5.04-.11.16-.26.26-.32.46-.26,2.1-.22,2.63-.1.84.18.84.97.34,1.53Z"/><path d="M17.4,14.01s-.01.04-.04.05c-.11.04-.31.04-.42.04-.42-.02-.8-.31-.97-.7-.34-.81-.46-2.68.72-2.84,1.36-.18,1.64.65,1.57,1.82-.04.69-.17,1.35-.86,1.63Z"/><path d="M7.11,13.76s-.16.13-.19.15c-.28.16-.64.24-.96.15-.01,0-.19-.09-.22-.11-.64-.34-.71-1.36-.68-2.01.04-.78.2-1.34,1.07-1.4.78-.05,1.26.21,1.39,1.01.1.58.02,1.76-.4,2.21Z"/></g></svg>